<?xml version="1.0" encoding="ISO-8859-1" standalone="no"?>
<!DOCTYPE svg PUBLIC "-//W3C//DTD SVG 1.1//EN" "http://www.w3.org/Graphics/SVG/1.1/DTD/svg11.dtd">
<svg version="1.1" baseProfile="full" id="body" width="551px" height="144px" viewBox="0 0 1 1" preserveAspectRatio="none" xmlns="http://www.w3.org/2000/svg" xmlns:xlink="http://www.w3.org/1999/xlink" xmlns:ev="http://www.w3.org/2001/xml-events">
<title>SVG drawing</title>
<desc>This was produced by version 4.4 of GNU libplot, a free library for exporting 2-D vector graphics.</desc>
<g id="content" transform="translate(-.2,6.3) scale(1.45,-5.4) scale(0.0017361) " xml:space="preserve" stroke="black" stroke-linecap="butt" stroke-linejoin="miter" stroke-miterlimit="10.433" stroke-dasharray="none" stroke-dashoffset="0" stroke-opacity="1" fill="none" fill-rule="evenodd" fill-opacity="1" font-style="normal" font-variant="normal" font-weight="normal" font-stretch="normal" font-size-adjust="none" letter-spacing="normal" word-spacing="normal" text-anchor="start">
<path d="M105.24,648.8 L105.24,648.79 L105.25,648.77 L105.26,648.76 L105.26,648.74 L105.27,648.73 L105.27,648.72 L105.28,648.71 L105.28,648.69 L105.29,648.68 L105.3,648.67 L105.3,648.66 L105.31,648.65 L105.31,648.64 L105.32,648.63 L105.33,648.62 L105.33,648.61 L105.34,648.6 L105.35,648.59 L105.36,648.59 L105.36,648.58 L105.37,648.57 L105.38,648.57 L105.39,648.56 L105.4,648.55 L105.41,648.55 L105.42,648.55 L105.43,648.54 L105.44,648.54 L105.45,648.54 L105.46,648.54 L105.48,648.54 L105.49,648.53 C105.61,648.53,105.71,648.65,105.71,648.75 C105.71,648.78,105.71,648.8,105.66,648.93 L101.94,659.13 C101.88,659.32,101.85,659.4,101.71,659.4 C101.58,659.4,101.49,659.3,101.49,659.18 C101.49,659.16,101.49,659.13,101.55,659 Z " stroke-width="0" fill="black" />
<path d="M110.69,648.8 L110.69,648.79 L110.7,648.77 L110.71,648.76 L110.71,648.74 L110.72,648.73 L110.72,648.72 L110.73,648.71 L110.73,648.69 L110.74,648.68 L110.75,648.67 L110.75,648.66 L110.76,648.65 L110.76,648.64 L110.77,648.63 L110.78,648.62 L110.78,648.61 L110.79,648.6 L110.8,648.59 L110.81,648.59 L110.81,648.58 L110.82,648.57 L110.83,648.57 L110.84,648.56 L110.85,648.55 L110.86,648.55 L110.87,648.55 L110.88,648.54 L110.89,648.54 L110.9,648.54 L110.91,648.54 L110.93,648.54 L110.94,648.53 C111.06,648.53,111.16,648.65,111.16,648.75 C111.16,648.78,111.16,648.8,111.11,648.93 L107.39,659.13 C107.33,659.32,107.3,659.4,107.16,659.4 C107.03,659.4,106.94,659.3,106.94,659.18 C106.94,659.16,106.94,659.13,107,659 Z " stroke-width="0" fill="black" />
<path d="M105.24,635.26 L105.24,635.24 L105.25,635.23 L105.26,635.22 L105.26,635.2 L105.27,635.19 L105.27,635.18 L105.28,635.16 L105.28,635.15 L105.29,635.14 L105.3,635.13 L105.3,635.12 L105.31,635.11 L105.31,635.09 L105.32,635.09 L105.33,635.08 L105.33,635.07 L105.34,635.06 L105.35,635.05 L105.36,635.04 L105.36,635.04 L105.37,635.03 L105.38,635.02 L105.39,635.02 L105.4,635.01 L105.41,635.01 L105.42,635 L105.43,635 L105.44,635 L105.45,634.99 L105.46,634.99 L105.48,634.99 L105.49,634.99 C105.61,634.99,105.71,635.1,105.71,635.21 C105.71,635.24,105.71,635.26,105.66,635.38 L101.94,645.59 C101.88,645.77,101.85,645.85,101.71,645.85 C101.58,645.85,101.49,645.76,101.49,645.63 C101.49,645.62,101.49,645.59,101.55,645.46 Z " stroke-width="0" fill="black" />
<path d="M110.69,635.26 L110.69,635.24 L110.7,635.23 L110.71,635.22 L110.71,635.2 L110.72,635.19 L110.72,635.18 L110.73,635.16 L110.73,635.15 L110.74,635.14 L110.75,635.13 L110.75,635.12 L110.76,635.11 L110.76,635.09 L110.77,635.09 L110.78,635.08 L110.78,635.07 L110.79,635.06 L110.8,635.05 L110.81,635.04 L110.81,635.04 L110.82,635.03 L110.83,635.02 L110.84,635.02 L110.85,635.01 L110.86,635.01 L110.87,635 L110.88,635 L110.89,635 L110.9,634.99 L110.91,634.99 L110.93,634.99 L110.94,634.99 C111.06,634.99,111.16,635.1,111.16,635.21 C111.16,635.24,111.16,635.26,111.11,635.38 L107.39,645.59 C107.33,645.77,107.3,645.85,107.16,645.85 C107.03,645.85,106.94,645.76,106.94,645.63 C106.94,645.62,106.94,645.59,107,645.46 Z " stroke-width="0" fill="black" />
<path d="M432.05,621.71 L432.05,621.69 L432.06,621.68 L432.06,621.66 L432.07,621.65 L432.08,621.64 L432.08,621.62 L432.09,621.61 L432.09,621.6 L432.1,621.59 L432.1,621.58 L432.11,621.57 L432.12,621.55 L432.12,621.54 L432.13,621.53 L432.14,621.52 L432.14,621.52 L432.15,621.51 L432.16,621.5 L432.16,621.49 L432.17,621.48 L432.18,621.48 L432.19,621.47 L432.2,621.47 L432.21,621.46 L432.22,621.46 L432.23,621.45 L432.24,621.45 L432.25,621.45 L432.26,621.44 L432.27,621.44 L432.28,621.44 L432.3,621.44 C432.42,621.44,432.52,621.55,432.52,621.66 C432.52,621.69,432.52,621.71,432.47,621.83 L428.75,632.03 C428.69,632.22,428.66,632.3,428.52,632.3 C428.39,632.3,428.3,632.21,428.3,632.08 C428.3,632.07,428.3,632.03,428.36,631.91 Z " stroke-width="0" fill="black" />
<path d="M435.01,628.25 V631.69 L433.45,631.57 V631.24 C434.21,631.24,434.31,631.16,434.31,630.63 V624.16 H434.57 C434.59,624.18,434.67,624.32,434.96,624.83 C435.12,624.58,435.59,624.03,436.39,624.03 C437.68,624.03,438.81,625.1,438.81,626.5 C438.81,627.88,437.75,628.96,436.51,628.96 L436.45,628.72 C436.93,628.72,437.32,628.44,437.59,628.02 C437.87,627.58,437.9,626.96,437.9,626.52 C437.9,626.11,437.89,625.46,437.57,624.97 C437.34,624.65,436.93,624.28,436.34,624.28 C435.86,624.28,435.46,624.53,435.2,624.94 C435.06,625.18,435.06,625.21,435.06,625.4 H435.06 V627.63 C435.06,627.83,435.06,627.85,435.17,628.02 C435.59,628.63,436.18,628.72,436.45,628.72 L436.51,628.96 C435.65,628.96,435.2,628.44,435.01,628.25 Z " stroke-width="0" fill="black" />
<path d="M441.02,627.77 V628.96 L439.51,628.83 V628.5 C440.27,628.5,440.37,628.43,440.37,627.9 V624.99 C440.37,624.5,440.24,624.5,439.51,624.5 V624.16 C439.95,624.18,440.45,624.19,440.76,624.19 C441.18,624.19,441.7,624.19,442.13,624.16 V624.5 H441.9 C441.1,624.5,441.07,624.61,441.07,625 V626.68 C441.07,627.75,441.54,628.72,442.35,628.72 C442.43,628.72,442.46,628.72,442.48,628.71 C442.45,628.69,442.23,628.57,442.23,628.28 C442.23,627.97,442.46,627.82,442.7,627.82 C442.88,627.82,443.16,627.94,443.16,628.3 C443.16,628.65,442.82,628.96,442.35,628.96 C441.57,628.96,441.18,628.22,441.02,627.77 Z " stroke-width="0" fill="black" />
<path d="M444.68,626.66 H447.71 C447.95,626.66,447.98,626.66,447.98,626.9 C447.98,627.97,447.4,629.02,446.04,629.02 V628.78 C447.15,628.78,447.26,627.32,447.26,626.9 H444.7 C444.76,628.5,445.67,628.78,446.04,628.78 V629.02 C444.78,629.02,443.78,627.91,443.78,626.55 C443.78,625.1,444.92,624.03,446.17,624.03 C447.5,624.03,447.98,625.24,447.98,625.46 C447.98,625.57,447.9,625.58,447.84,625.58 C447.75,625.58,447.73,625.52,447.7,625.43 C447.32,624.32,446.34,624.32,446.23,624.32 C445.7,624.32,445.26,624.65,445.01,625.03 C444.68,625.57,444.68,626.27,444.68,626.66 Z " stroke-width="0" fill="black" />
<path d="M451.94,624.99 L451.95,624.95 L451.95,624.91 L451.96,624.87 L451.97,624.82 L451.98,624.78 L451.99,624.74 L452.01,624.7 L452.02,624.66 L452.04,624.63 L452.06,624.59 L452.08,624.55 L452.1,624.51 L452.12,624.48 L452.14,624.44 L452.17,624.41 L452.19,624.38 L452.22,624.35 L452.25,624.32 L452.28,624.29 L452.31,624.26 L452.34,624.24 L452.38,624.22 L452.41,624.2 L452.45,624.18 L452.49,624.16 L452.53,624.14 L452.57,624.13 L452.61,624.12 L452.65,624.11 L452.69,624.1 L452.74,624.1 L452.79,624.1 C453.02,624.1,453.68,624.25,453.68,625.13 V625.74 H453.41 V625.13 C453.41,624.5,453.14,624.43,453.02,624.43 C452.66,624.43,452.61,624.93,452.61,624.97 V627.15 C452.61,627.6,452.61,628.02,452.22,628.43 C451.8,628.85,451.25,629.02,450.74,629.02 C449.85,629.02,449.1,628.5,449.1,627.8 C449.1,627.47,449.32,627.28,449.6,627.28 C449.91,627.28,450.1,627.5,450.1,627.78 C450.1,627.91,450.05,628.27,449.55,628.28 C449.85,628.66,450.38,628.78,450.72,628.78 C451.25,628.78,451.86,628.36,451.86,627.4 V626.99 V626.77 V625.68 C451.86,624.65,451.08,624.28,450.6,624.28 C450.07,624.28,449.63,624.66,449.63,625.21 C449.63,625.8,450.08,626.69,451.86,626.77 H451.86 V626.99 C451.32,626.96,450.55,626.93,449.88,626.6 C449.07,626.24,448.79,625.68,448.79,625.19 C448.79,624.32,449.85,624.03,450.52,624.03 C451.24,624.03,451.74,624.47,451.94,624.99 Z " stroke-width="0" fill="black" />
<path d="M454.94,624.99 L454.94,624.94 L454.94,624.9 L454.93,624.86 L454.93,624.83 L454.93,624.79 L454.92,624.76 L454.91,624.73 L454.91,624.71 L454.9,624.68 L454.89,624.66 L454.87,624.64 L454.86,624.62 L454.84,624.61 L454.83,624.59 L454.81,624.58 L454.78,624.56 L454.76,624.55 L454.73,624.54 L454.7,624.54 L454.67,624.53 L454.64,624.52 L454.6,624.52 L454.56,624.51 L454.52,624.51 L454.5,624.51 L454.48,624.51 L454.45,624.51 L454.43,624.51 L454.41,624.51 L454.38,624.51 L454.35,624.51 L454.33,624.5 L454.3,624.5 L454.27,624.5 L454.24,624.5 L454.21,624.5 L454.18,624.5 L454.15,624.5 L454.11,624.5 L454.08,624.5 V624.16 C454.44,624.18,454.95,624.19,455.27,624.19 C455.59,624.19,456.03,624.18,456.47,624.16 V624.5 C455.73,624.5,455.61,624.5,455.61,624.99 V626.1 L456.31,626.69 C457.14,625.55,457.59,624.94,457.59,624.74 C457.59,624.53,457.42,624.5,457.2,624.5 V624.16 C457.52,624.18,458.16,624.19,458.38,624.19 C458.7,624.19,459.02,624.18,459.33,624.16 V624.5 C458.92,624.5,458.69,624.5,458.27,625.07 L456.89,627.02 C456.89,627.03,456.83,627.1,456.83,627.13 C456.83,627.18,457.59,627.83,457.7,627.91 C458.39,628.47,458.84,628.49,459.08,628.5 V628.83 C458.77,628.8,458.62,628.8,458.31,628.8 C457.92,628.8,457.25,628.83,457.09,628.83 V628.5 C457.31,628.49,457.42,628.36,457.42,628.22 C457.42,628.02,457.27,627.88,457.17,627.8 L455.64,626.49 V631.69 L454.08,631.57 V631.24 C454.84,631.24,454.94,631.16,454.94,630.63 Z " stroke-width="0" fill="black" />
<path d="M105.24,608.16 L105.24,608.14 L105.25,608.13 L105.26,608.11 L105.26,608.1 L105.27,608.09 L105.27,608.07 L105.28,608.06 L105.28,608.05 L105.29,608.04 L105.3,608.03 L105.3,608.01 L105.31,608 L105.31,607.99 L105.32,607.98 L105.33,607.97 L105.33,607.96 L105.34,607.96 L105.35,607.95 L105.36,607.94 L105.36,607.93 L105.37,607.93 L105.38,607.92 L105.39,607.92 L105.4,607.91 L105.41,607.91 L105.42,607.9 L105.43,607.9 L105.44,607.9 L105.45,607.89 L105.46,607.89 L105.48,607.89 L105.49,607.89 C105.61,607.89,105.71,608,105.71,608.11 C105.71,608.14,105.71,608.16,105.66,608.28 L101.94,618.48 C101.88,618.67,101.85,618.75,101.71,618.75 C101.58,618.75,101.49,618.66,101.49,618.53 C101.49,618.52,101.49,618.48,101.55,618.36 Z " stroke-width="0" fill="black" />
<path d="M108.2,614.7 V618.14 L106.64,618.02 V617.69 C107.41,617.69,107.5,617.61,107.5,617.08 V610.61 H107.77 C107.78,610.62,107.86,610.77,108.16,611.28 C108.31,611.03,108.78,610.48,109.58,610.48 C110.88,610.48,112,611.55,112,612.95 C112,614.33,110.94,615.41,109.7,615.41 L109.64,615.17 C110.12,615.17,110.52,614.89,110.78,614.47 C111.06,614.03,111.09,613.41,111.09,612.97 C111.09,612.56,111.08,611.91,110.77,611.42 C110.53,611.09,110.12,610.73,109.53,610.73 C109.05,610.73,108.66,610.98,108.39,611.39 C108.25,611.62,108.25,611.66,108.25,611.84 H108.25 V614.08 C108.25,614.28,108.25,614.3,108.36,614.47 C108.78,615.08,109.38,615.17,109.64,615.17 L109.7,615.41 C108.84,615.41,108.39,614.89,108.2,614.7 Z " stroke-width="0" fill="black" />
<path d="M114.21,614.22 V615.41 L112.7,615.28 V614.95 C113.46,614.95,113.56,614.88,113.56,614.34 V611.44 C113.56,610.95,113.43,610.95,112.7,610.95 V610.61 C113.14,610.62,113.64,610.64,113.95,610.64 C114.37,610.64,114.89,610.64,115.32,610.61 V610.95 H115.09 C114.29,610.95,114.26,611.06,114.26,611.45 V613.12 C114.26,614.2,114.73,615.17,115.54,615.17 C115.62,615.17,115.65,615.17,115.67,615.16 C115.64,615.14,115.42,615.02,115.42,614.73 C115.42,614.42,115.65,614.27,115.89,614.27 C116.07,614.27,116.36,614.39,116.36,614.75 C116.36,615.09,116.01,615.41,115.54,615.41 C114.76,615.41,114.37,614.67,114.21,614.22 Z " stroke-width="0" fill="black" />
<path d="M117.88,613.11 H120.91 C121.14,613.11,121.17,613.11,121.17,613.34 C121.17,614.42,120.59,615.47,119.23,615.47 V615.23 C120.34,615.23,120.45,613.77,120.45,613.34 H117.89 C117.95,614.95,118.86,615.23,119.23,615.23 V615.47 C117.97,615.47,116.97,614.36,116.97,613 C116.97,611.55,118.11,610.48,119.36,610.48 C120.69,610.48,121.17,611.69,121.17,611.91 C121.17,612.02,121.09,612.03,121.03,612.03 C120.94,612.03,120.92,611.97,120.89,611.88 C120.52,610.77,119.53,610.77,119.42,610.77 C118.89,610.77,118.45,611.09,118.2,611.48 C117.88,612.02,117.88,612.72,117.88,613.11 Z " stroke-width="0" fill="black" />
<path d="M125.13,611.44 L125.14,611.4 L125.14,611.36 L125.15,611.31 L125.16,611.27 L125.17,611.23 L125.19,611.19 L125.2,611.15 L125.21,611.11 L125.23,611.08 L125.25,611.04 L125.27,611 L125.29,610.96 L125.31,610.93 L125.33,610.89 L125.36,610.86 L125.39,610.83 L125.41,610.8 L125.44,610.77 L125.47,610.74 L125.5,610.71 L125.54,610.69 L125.57,610.67 L125.6,610.64 L125.64,610.62 L125.68,610.61 L125.72,610.59 L125.76,610.58 L125.8,610.57 L125.84,610.56 L125.89,610.55 L125.93,610.55 L125.98,610.55 C126.21,610.55,126.87,610.7,126.87,611.58 V612.19 H126.6 V611.58 C126.6,610.95,126.34,610.88,126.21,610.88 C125.85,610.88,125.81,611.38,125.81,611.42 V613.59 C125.81,614.05,125.81,614.47,125.41,614.88 C124.99,615.3,124.44,615.47,123.93,615.47 C123.04,615.47,122.29,614.95,122.29,614.25 C122.29,613.92,122.51,613.73,122.79,613.73 C123.1,613.73,123.29,613.95,123.29,614.23 C123.29,614.36,123.24,614.72,122.74,614.73 C123.04,615.11,123.57,615.23,123.91,615.23 C124.44,615.23,125.06,614.81,125.06,613.84 V613.44 V613.22 V612.12 C125.06,611.09,124.27,610.73,123.79,610.73 C123.26,610.73,122.82,611.11,122.82,611.66 C122.82,612.25,123.27,613.14,125.06,613.22 H125.06 V613.44 C124.51,613.41,123.74,613.38,123.07,613.05 C122.26,612.69,121.98,612.12,121.98,611.64 C121.98,610.77,123.04,610.48,123.71,610.48 C124.43,610.48,124.93,610.92,125.13,611.44 Z " stroke-width="0" fill="black" />
<path d="M128.13,611.44 L128.13,611.39 L128.13,611.35 L128.13,611.31 L128.12,611.28 L128.12,611.24 L128.11,611.21 L128.11,611.18 L128.1,611.16 L128.09,611.13 L128.08,611.11 L128.07,611.09 L128.05,611.07 L128.03,611.05 L128.02,611.04 L128,611.03 L127.97,611.01 L127.95,611 L127.92,610.99 L127.9,610.99 L127.86,610.98 L127.83,610.97 L127.79,610.97 L127.76,610.96 L127.71,610.96 L127.69,610.96 L127.67,610.96 L127.65,610.96 L127.62,610.96 L127.6,610.96 L127.57,610.95 L127.54,610.95 L127.52,610.95 L127.49,610.95 L127.46,610.95 L127.43,610.95 L127.4,610.95 L127.37,610.95 L127.34,610.95 L127.3,610.95 L127.27,610.95 V610.61 C127.63,610.62,128.15,610.64,128.46,610.64 C128.79,610.64,129.22,610.62,129.66,610.61 V610.95 C128.93,610.95,128.8,610.95,128.8,611.44 V612.55 L129.5,613.14 C130.33,612,130.79,611.39,130.79,611.19 C130.79,610.98,130.61,610.95,130.4,610.95 V610.61 C130.71,610.62,131.35,610.64,131.57,610.64 C131.9,610.64,132.21,610.62,132.52,610.61 V610.95 C132.11,610.95,131.88,610.95,131.46,611.52 L130.08,613.47 C130.08,613.48,130.02,613.55,130.02,613.58 C130.02,613.62,130.79,614.28,130.9,614.36 C131.58,614.92,132.04,614.94,132.27,614.95 V615.28 C131.96,615.25,131.82,615.25,131.5,615.25 C131.11,615.25,130.44,615.28,130.29,615.28 V614.95 C130.5,614.94,130.61,614.81,130.61,614.67 C130.61,614.47,130.46,614.33,130.36,614.25 L128.83,612.94 V618.14 L127.27,618.02 V617.69 C128.04,617.69,128.13,617.61,128.13,617.08 Z " stroke-width="0" fill="black" />
<path d="M105.24,594.6 L105.24,594.59 L105.25,594.58 L105.26,594.56 L105.26,594.55 L105.27,594.54 L105.27,594.52 L105.28,594.51 L105.28,594.5 L105.29,594.49 L105.3,594.47 L105.3,594.46 L105.31,594.45 L105.31,594.44 L105.32,594.43 L105.33,594.42 L105.33,594.41 L105.34,594.41 L105.35,594.4 L105.36,594.39 L105.36,594.38 L105.37,594.38 L105.38,594.37 L105.39,594.36 L105.4,594.36 L105.41,594.36 L105.42,594.35 L105.43,594.35 L105.44,594.35 L105.45,594.34 L105.46,594.34 L105.48,594.34 L105.49,594.34 C105.61,594.34,105.71,594.45,105.71,594.56 C105.71,594.59,105.71,594.6,105.66,594.73 L101.94,604.93 C101.88,605.12,101.85,605.2,101.71,605.2 C101.58,605.2,101.49,605.1,101.49,604.98 C101.49,604.97,101.49,604.93,101.55,604.81 Z " stroke-width="0" fill="black" />
<path d="M107.53,597.89 L107.53,597.84 L107.53,597.8 L107.53,597.76 L107.52,597.73 L107.52,597.69 L107.52,597.66 L107.51,597.63 L107.5,597.61 L107.49,597.58 L107.48,597.56 L107.47,597.54 L107.46,597.52 L107.44,597.5 L107.43,597.49 L107.41,597.47 L107.38,597.46 L107.36,597.45 L107.34,597.44 L107.31,597.43 L107.28,597.43 L107.24,597.42 L107.21,597.42 L107.19,597.41 L107.17,597.41 L107.15,597.41 L107.13,597.41 L107.11,597.41 L107.09,597.41 L107.06,597.41 L107.04,597.41 L107.01,597.4 L106.99,597.4 L106.96,597.4 L106.93,597.4 L106.91,597.4 L106.88,597.4 L106.85,597.4 L106.82,597.4 L106.79,597.4 L106.76,597.4 L106.72,597.4 L106.69,597.4 V597.06 C107.08,597.07,107.62,597.09,107.92,597.09 C108.2,597.09,108.77,597.07,109.12,597.06 V597.4 C108.41,597.4,108.28,597.4,108.28,597.89 V599.89 C108.28,601.01,109.06,601.62,109.75,601.62 C110.44,601.62,110.55,601.03,110.55,600.42 V597.89 C110.55,597.4,110.44,597.4,109.7,597.4 V597.06 C110.09,597.07,110.64,597.09,110.94,597.09 C111.22,597.09,111.78,597.07,112.16,597.06 V597.4 C111.58,597.4,111.31,597.4,111.3,597.72 V599.79 C111.3,600.73,111.3,601.06,110.97,601.45 C110.81,601.64,110.45,601.85,109.83,601.85 C108.92,601.85,108.44,601.2,108.25,600.79 V604.59 L106.69,604.47 V604.14 C107.45,604.14,107.53,604.06,107.53,603.53 Z " stroke-width="0" fill="black" />
<path d="M115.98,601.4 L116,601.4 L116.03,601.4 L116.05,601.4 L116.07,601.4 L116.09,601.4 L116.11,601.4 L116.15,601.4 L116.18,601.39 L116.22,601.39 L116.25,601.38 L116.28,601.37 L116.31,601.36 L116.34,601.36 L116.36,601.35 L116.38,601.33 L116.4,601.32 L116.42,601.31 L116.44,601.29 L116.46,601.28 L116.47,601.26 L116.48,601.24 L116.5,601.22 L116.51,601.2 L116.52,601.17 L116.53,601.15 L116.53,601.12 L116.54,601.09 L116.54,601.06 L116.55,601.03 L116.55,601 L116.55,600.96 L116.56,600.93 L116.56,600.89 L116.56,600.85 L116.56,600.81 V597.89 C116.56,597.4,116.43,597.4,115.71,597.4 V597.06 C116.07,597.07,116.65,597.09,116.92,597.09 C117.18,597.09,117.71,597.07,118.12,597.06 V597.4 C117.39,597.4,117.28,597.4,117.28,597.89 V601.87 L115.9,601.76 C115.73,601.76,115.71,601.75,115.71,601.75 C115.68,601.73,115.67,601.73,115.51,601.73 H114.23 V602.97 C114.23,604.04,115.17,604.47,115.84,604.47 C116.17,604.47,116.56,604.35,116.78,604.1 C116.32,604.09,116.26,603.79,116.26,603.6 C116.26,603.26,116.54,603.1,116.75,603.1 C117,603.1,117.25,603.29,117.25,603.6 C117.25,604.25,116.65,604.72,115.86,604.72 C114.84,604.72,113.56,604.15,113.56,602.97 V601.73 H112.7 V601.4 H113.56 V597.89 C113.56,597.4,113.43,597.4,112.7,597.4 V597.06 C113.06,597.07,113.64,597.09,113.92,597.09 C114.18,597.09,114.71,597.07,115.12,597.06 V597.4 C114.39,597.4,114.26,597.4,114.26,597.89 V601.4 Z " stroke-width="0" fill="black" />
<path d="M120.38,604.59 L118.82,604.47 V604.14 C119.59,604.14,119.66,604.06,119.66,603.53 V597.89 C119.66,597.4,119.54,597.4,118.82,597.4 V597.06 C119.18,597.07,119.76,597.09,120.02,597.09 C120.29,597.09,120.82,597.07,121.23,597.06 V597.4 C120.51,597.4,120.38,597.4,120.38,597.89 Z " stroke-width="0" fill="black" />
<path d="M123.41,604.59 L121.85,604.47 V604.14 C122.61,604.14,122.69,604.06,122.69,603.53 V597.89 C122.69,597.4,122.57,597.4,121.85,597.4 V597.06 C122.21,597.07,122.79,597.09,123.05,597.09 C123.32,597.09,123.85,597.07,124.25,597.06 V597.4 C123.54,597.4,123.41,597.4,123.41,597.89 Z " stroke-width="0" fill="black" />
<path d="M128.86,594.6 L128.86,594.59 L128.87,594.58 L128.88,594.56 L128.88,594.55 L128.89,594.54 L128.89,594.52 L128.9,594.51 L128.9,594.5 L128.91,594.49 L128.92,594.47 L128.92,594.46 L128.93,594.45 L128.94,594.44 L128.94,594.43 L128.95,594.42 L128.96,594.41 L128.96,594.41 L128.97,594.4 L128.98,594.39 L128.98,594.38 L128.99,594.38 L129,594.37 L129.01,594.36 L129.02,594.36 L129.03,594.36 L129.04,594.35 L129.05,594.35 L129.06,594.35 L129.07,594.34 L129.08,594.34 L129.1,594.34 L129.11,594.34 C129.23,594.34,129.33,594.45,129.33,594.56 C129.33,594.59,129.33,594.6,129.28,594.73 L125.56,604.93 C125.5,605.12,125.47,605.2,125.33,605.2 C125.2,605.2,125.11,605.1,125.11,604.98 C125.11,604.97,125.11,604.93,125.17,604.81 Z " stroke-width="0" fill="black" />
<path d="M131.82,601.15 V604.59 L130.26,604.47 V604.14 C131.03,604.14,131.12,604.06,131.12,603.53 V597.06 H131.39 C131.4,597.07,131.48,597.22,131.78,597.73 C131.93,597.48,132.4,596.93,133.2,596.93 C134.5,596.93,135.62,598,135.62,599.4 C135.62,600.78,134.56,601.85,133.32,601.85 L133.26,601.62 C133.75,601.62,134.14,601.34,134.4,600.92 C134.68,600.48,134.71,599.85,134.71,599.42 C134.71,599.01,134.7,598.35,134.39,597.87 C134.15,597.54,133.75,597.18,133.15,597.18 C132.67,597.18,132.28,597.43,132.01,597.84 C131.87,598.07,131.87,598.1,131.87,598.29 H131.87 V600.53 C131.87,600.73,131.87,600.75,131.98,600.92 C132.4,601.53,133,601.62,133.26,601.62 L133.32,601.85 C132.46,601.85,132.01,601.34,131.82,601.15 Z " stroke-width="0" fill="black" />
<path d="M137.84,600.67 V601.85 L136.32,601.73 V601.4 C137.09,601.4,137.18,601.32,137.18,600.79 V597.89 C137.18,597.4,137.05,597.4,136.32,597.4 V597.06 C136.76,597.07,137.26,597.09,137.57,597.09 C137.99,597.09,138.51,597.09,138.95,597.06 V597.4 H138.71 C137.91,597.4,137.88,597.51,137.88,597.9 V599.57 C137.88,600.65,138.35,601.62,139.16,601.62 C139.24,601.62,139.27,601.62,139.29,601.6 C139.26,601.59,139.04,601.47,139.04,601.18 C139.04,600.87,139.27,600.72,139.51,600.72 C139.7,600.72,139.98,600.84,139.98,601.2 C139.98,601.54,139.63,601.85,139.16,601.85 C138.38,601.85,137.99,601.12,137.84,600.67 Z " stroke-width="0" fill="black" />
<path d="M141.5,599.56 H144.53 C144.76,599.56,144.79,599.56,144.79,599.79 C144.79,600.87,144.21,601.92,142.85,601.92 V601.68 C143.96,601.68,144.07,600.22,144.07,599.79 H141.51 C141.57,601.4,142.48,601.68,142.85,601.68 V601.92 C141.59,601.92,140.59,600.81,140.59,599.45 C140.59,598,141.73,596.93,142.98,596.93 C144.31,596.93,144.79,598.14,144.79,598.35 C144.79,598.47,144.71,598.48,144.65,598.48 C144.56,598.48,144.54,598.42,144.51,598.32 C144.14,597.22,143.15,597.22,143.04,597.22 C142.51,597.22,142.07,597.54,141.82,597.93 C141.5,598.47,141.5,599.17,141.5,599.56 Z " stroke-width="0" fill="black" />
<path d="M148.75,597.89 L148.76,597.85 L148.77,597.8 L148.77,597.76 L148.78,597.72 L148.79,597.68 L148.81,597.64 L148.82,597.6 L148.84,597.56 L148.85,597.52 L148.87,597.49 L148.89,597.45 L148.91,597.41 L148.93,597.38 L148.96,597.34 L148.98,597.31 L149.01,597.28 L149.03,597.25 L149.06,597.22 L149.09,597.19 L149.12,597.16 L149.16,597.14 L149.19,597.11 L149.23,597.09 L149.26,597.07 L149.3,597.06 L149.34,597.04 L149.38,597.03 L149.42,597.02 L149.46,597.01 L149.51,597 L149.55,597 L149.6,597 C149.83,597,150.49,597.15,150.49,598.03 V598.64 H150.22 V598.03 C150.22,597.4,149.96,597.32,149.83,597.32 C149.47,597.32,149.43,597.82,149.43,597.87 V600.04 C149.43,600.5,149.43,600.92,149.04,601.32 C148.61,601.75,148.07,601.92,147.55,601.92 C146.66,601.92,145.91,601.4,145.91,600.7 C145.91,600.37,146.13,600.18,146.41,600.18 C146.72,600.18,146.91,600.4,146.91,600.68 C146.91,600.81,146.86,601.17,146.36,601.18 C146.66,601.56,147.19,601.68,147.54,601.68 C148.07,601.68,148.68,601.26,148.68,600.29 V599.89 V599.67 V598.57 C148.68,597.54,147.9,597.18,147.41,597.18 C146.88,597.18,146.44,597.56,146.44,598.1 C146.44,598.7,146.9,599.59,148.68,599.67 H148.68 V599.89 C148.13,599.85,147.36,599.82,146.69,599.5 C145.88,599.14,145.6,598.57,145.6,598.09 C145.6,597.22,146.66,596.93,147.33,596.93 C148.05,596.93,148.55,597.37,148.75,597.89 Z " stroke-width="0" fill="black" />
<path d="M151.75,597.89 L151.75,597.84 L151.75,597.8 L151.75,597.76 L151.74,597.73 L151.74,597.69 L151.73,597.66 L151.73,597.63 L151.72,597.61 L151.71,597.58 L151.7,597.56 L151.69,597.54 L151.67,597.52 L151.66,597.5 L151.64,597.49 L151.62,597.47 L151.6,597.46 L151.57,597.45 L151.55,597.44 L151.52,597.43 L151.49,597.43 L151.45,597.42 L151.42,597.42 L151.38,597.41 L151.33,597.41 L151.31,597.41 L151.29,597.41 L151.27,597.41 L151.24,597.41 L151.22,597.4 L151.19,597.4 L151.17,597.4 L151.14,597.4 L151.11,597.4 L151.08,597.4 L151.05,597.4 L151.02,597.4 L150.99,597.4 L150.96,597.4 L150.92,597.4 L150.89,597.4 V597.06 C151.25,597.07,151.77,597.09,152.08,597.09 C152.41,597.09,152.84,597.07,153.28,597.06 V597.4 C152.55,597.4,152.42,597.4,152.42,597.89 V599 L153.12,599.59 C153.95,598.45,154.41,597.84,154.41,597.64 C154.41,597.43,154.23,597.4,154.02,597.4 V597.06 C154.33,597.07,154.97,597.09,155.19,597.09 C155.52,597.09,155.83,597.07,156.14,597.06 V597.4 C155.73,597.4,155.5,597.4,155.08,597.97 L153.7,599.92 C153.7,599.93,153.64,600,153.64,600.03 C153.64,600.07,154.41,600.73,154.52,600.81 C155.2,601.37,155.66,601.39,155.89,601.4 V601.73 C155.58,601.7,155.44,601.7,155.12,601.7 C154.73,601.7,154.06,601.73,153.91,601.73 V601.4 C154.12,601.39,154.23,601.26,154.23,601.12 C154.23,600.92,154.08,600.78,153.98,600.7 L152.45,599.39 V604.59 L150.89,604.47 V604.14 C151.66,604.14,151.75,604.06,151.75,603.53 Z " stroke-width="0" fill="black" />
<path d="M105.24,581.05 L105.24,581.04 L105.25,581.03 L105.26,581.01 L105.26,581 L105.27,580.99 L105.27,580.97 L105.28,580.96 L105.28,580.95 L105.29,580.94 L105.3,580.92 L105.3,580.91 L105.31,580.9 L105.31,580.89 L105.32,580.88 L105.33,580.87 L105.33,580.86 L105.34,580.85 L105.35,580.85 L105.36,580.84 L105.36,580.83 L105.37,580.83 L105.38,580.82 L105.39,580.81 L105.4,580.81 L105.41,580.8 L105.42,580.8 L105.43,580.8 L105.44,580.79 L105.45,580.79 L105.46,580.79 L105.48,580.79 L105.49,580.79 C105.61,580.79,105.71,580.9,105.71,581.01 C105.71,581.04,105.71,581.05,105.66,581.18 L101.94,591.38 C101.88,591.57,101.85,591.65,101.71,591.65 C101.58,591.65,101.49,591.55,101.49,591.43 C101.49,591.41,101.49,591.38,101.55,591.26 Z " stroke-width="0" fill="black" />
<path d="M108.27,591.04 L106.7,590.91 V590.59 C107.47,590.59,107.55,590.51,107.55,589.98 V584.34 C107.55,583.85,107.42,583.85,106.7,583.85 V583.51 C107.06,583.52,107.64,583.54,107.91,583.54 C108.17,583.54,108.7,583.52,109.11,583.51 V583.85 C108.39,583.85,108.27,583.85,108.27,584.34 Z " stroke-width="0" fill="black" />
<path d="M111.29,588.3 L109.78,588.18 V587.85 C110.48,587.85,110.57,587.79,110.57,587.26 V584.34 C110.57,583.85,110.45,583.85,109.73,583.85 V583.51 C110.07,583.52,110.67,583.54,110.92,583.54 C111.31,583.54,111.68,583.52,112.06,583.51 V583.85 C111.34,583.85,111.29,583.9,111.29,584.32 Z " stroke-width="0" fill="black" />
<path d="M111.34,590.2 L111.34,590.23 L111.34,590.26 L111.33,590.29 L111.33,590.32 L111.32,590.35 L111.31,590.38 L111.3,590.4 L111.29,590.43 L111.28,590.46 L111.27,590.48 L111.25,590.51 L111.24,590.53 L111.22,590.55 L111.2,590.57 L111.18,590.59 L111.16,590.61 L111.14,590.63 L111.12,590.65 L111.1,590.67 L111.08,590.68 L111.05,590.7 L111.03,590.71 L111,590.72 L110.98,590.73 L110.95,590.74 L110.93,590.75 L110.9,590.76 L110.87,590.76 L110.84,590.77 L110.82,590.77 L110.79,590.77 L110.76,590.77 C110.42,590.77,110.18,590.48,110.18,590.2 C110.18,589.9,110.42,589.62,110.76,589.62 C111.06,589.62,111.34,589.85,111.34,590.2 Z " stroke-width="0" fill="black" />
<path d="M113.59,587.24 V584.34 C113.59,583.85,113.48,583.85,112.74,583.85 V583.51 C113.13,583.52,113.68,583.54,113.98,583.54 C114.26,583.54,114.82,583.52,115.18,583.51 V583.85 C114.46,583.85,114.34,583.85,114.34,584.34 V586.34 C114.34,587.46,115.12,588.07,115.81,588.07 C116.49,588.07,116.6,587.48,116.6,586.87 V584.34 C116.6,583.85,116.49,583.85,115.76,583.85 V583.51 C116.15,583.52,116.69,583.54,116.99,583.54 C117.27,583.54,117.84,583.52,118.21,583.51 V583.85 C117.63,583.85,117.37,583.85,117.35,584.16 V586.24 C117.35,587.18,117.35,587.51,117.02,587.9 C116.87,588.09,116.51,588.3,115.88,588.3 C115.09,588.3,114.59,587.84,114.27,587.16 V588.3 L112.74,588.18 V587.85 C113.51,587.85,113.59,587.77,113.59,587.24 Z " stroke-width="0" fill="black" />
<path d="M119.66,586.01 H122.69 C122.93,586.01,122.96,586.01,122.96,586.24 C122.96,587.32,122.38,588.37,121.02,588.37 V588.13 C122.13,588.13,122.24,586.66,122.24,586.24 H119.68 C119.74,587.85,120.64,588.13,121.02,588.13 V588.37 C119.75,588.37,118.75,587.26,118.75,585.9 C118.75,584.45,119.89,583.38,121.14,583.38 C122.47,583.38,122.96,584.59,122.96,584.8 C122.96,584.91,122.88,584.93,122.82,584.93 C122.72,584.93,122.71,584.87,122.68,584.77 C122.3,583.66,121.32,583.66,121.21,583.66 C120.68,583.66,120.24,583.99,119.99,584.38 C119.66,584.91,119.66,585.62,119.66,586.01 Z " stroke-width="0" fill="black" />
<path d="M125.16,587.6 V591.04 L123.6,590.91 V590.59 C124.36,590.59,124.46,590.51,124.46,589.98 V583.51 H124.72 C124.74,583.52,124.82,583.66,125.11,584.18 C125.27,583.93,125.74,583.38,126.54,583.38 C127.83,583.38,128.96,584.45,128.96,585.85 C128.96,587.23,127.89,588.3,126.66,588.3 L126.6,588.07 C127.08,588.07,127.47,587.79,127.74,587.37 C128.02,586.93,128.05,586.3,128.05,585.87 C128.05,585.46,128.04,584.8,127.72,584.32 C127.49,583.99,127.08,583.63,126.49,583.63 C126,583.63,125.61,583.88,125.35,584.29 C125.21,584.52,125.21,584.55,125.21,584.74 H125.21 V586.98 C125.21,587.18,125.21,587.2,125.32,587.37 C125.74,587.98,126.33,588.07,126.6,588.07 L126.66,588.3 C125.8,588.3,125.35,587.79,125.16,587.6 Z " stroke-width="0" fill="black" />
<path d="M131.17,587.12 V588.3 L129.66,588.18 V587.85 C130.42,587.85,130.52,587.77,130.52,587.24 V584.34 C130.52,583.85,130.39,583.85,129.66,583.85 V583.51 C130.09,583.52,130.59,583.54,130.91,583.54 C131.33,583.54,131.84,583.54,132.28,583.51 V583.85 H132.05 C131.25,583.85,131.22,583.96,131.22,584.35 V586.02 C131.22,587.1,131.69,588.07,132.5,588.07 C132.58,588.07,132.61,588.07,132.62,588.05 C132.59,588.04,132.38,587.91,132.38,587.63 C132.38,587.32,132.61,587.16,132.84,587.16 C133.03,587.16,133.31,587.29,133.31,587.65 C133.31,587.99,132.97,588.3,132.5,588.3 C131.72,588.3,131.33,587.57,131.17,587.12 Z " stroke-width="0" fill="black" />
<path d="M134.83,586.01 H137.86 C138.1,586.01,138.13,586.01,138.13,586.24 C138.13,587.32,137.55,588.37,136.19,588.37 V588.13 C137.3,588.13,137.41,586.66,137.41,586.24 H134.85 C134.91,587.85,135.82,588.13,136.19,588.13 V588.37 C134.93,588.37,133.93,587.26,133.93,585.9 C133.93,584.45,135.07,583.38,136.32,583.38 C137.65,583.38,138.13,584.59,138.13,584.8 C138.13,584.91,138.05,584.93,137.99,584.93 C137.9,584.93,137.88,584.87,137.85,584.77 C137.47,583.66,136.49,583.66,136.38,583.66 C135.85,583.66,135.41,583.99,135.16,584.38 C134.83,584.91,134.83,585.62,134.83,586.01 Z " stroke-width="0" fill="black" />
<path d="M142.09,584.34 L142.1,584.29 L142.1,584.25 L142.11,584.21 L142.12,584.17 L142.13,584.13 L142.14,584.09 L142.16,584.05 L142.17,584.01 L142.19,583.97 L142.21,583.94 L142.23,583.9 L142.25,583.86 L142.27,583.83 L142.29,583.79 L142.32,583.76 L142.34,583.73 L142.37,583.7 L142.4,583.67 L142.43,583.64 L142.46,583.61 L142.49,583.59 L142.53,583.56 L142.56,583.54 L142.6,583.52 L142.64,583.51 L142.67,583.49 L142.71,583.48 L142.76,583.47 L142.8,583.46 L142.84,583.45 L142.89,583.45 L142.93,583.45 C143.17,583.45,143.82,583.6,143.82,584.48 V585.09 H143.56 V584.48 C143.56,583.85,143.29,583.77,143.17,583.77 C142.81,583.77,142.76,584.27,142.76,584.32 V586.49 C142.76,586.95,142.76,587.37,142.37,587.77 C141.95,588.2,141.4,588.37,140.89,588.37 C140,588.37,139.25,587.85,139.25,587.15 C139.25,586.82,139.46,586.63,139.75,586.63 C140.06,586.63,140.25,586.85,140.25,587.13 C140.25,587.26,140.2,587.62,139.7,587.63 C140,588.01,140.53,588.13,140.87,588.13 C141.4,588.13,142.01,587.71,142.01,586.74 V586.34 V586.12 V585.02 C142.01,583.99,141.23,583.63,140.75,583.63 C140.21,583.63,139.78,584.01,139.78,584.55 C139.78,585.15,140.23,586.04,142.01,586.12 H142.01 V586.34 C141.46,586.3,140.7,586.27,140.03,585.95 C139.21,585.59,138.93,585.02,138.93,584.54 C138.93,583.66,140,583.38,140.67,583.38 C141.39,583.38,141.89,583.82,142.09,584.34 Z " stroke-width="0" fill="black" />
<path d="M145.09,584.34 L145.09,584.29 L145.08,584.25 L145.08,584.21 L145.08,584.18 L145.07,584.14 L145.07,584.11 L145.06,584.08 L145.05,584.06 L145.05,584.03 L145.03,584.01 L145.02,583.99 L145.01,583.97 L144.99,583.95 L144.97,583.94 L144.95,583.92 L144.93,583.91 L144.91,583.9 L144.88,583.89 L144.85,583.88 L144.82,583.88 L144.79,583.87 L144.75,583.87 L144.71,583.86 L144.67,583.86 L144.65,583.86 L144.63,583.86 L144.6,583.86 L144.58,583.86 L144.55,583.85 L144.53,583.85 L144.5,583.85 L144.47,583.85 L144.45,583.85 L144.42,583.85 L144.39,583.85 L144.36,583.85 L144.33,583.85 L144.29,583.85 L144.26,583.85 L144.23,583.85 V583.51 C144.59,583.52,145.1,583.54,145.41,583.54 C145.74,583.54,146.18,583.52,146.62,583.51 V583.85 C145.88,583.85,145.76,583.85,145.76,584.34 V585.45 L146.46,586.04 C147.29,584.9,147.74,584.29,147.74,584.09 C147.74,583.88,147.57,583.85,147.35,583.85 V583.51 C147.66,583.52,148.3,583.54,148.52,583.54 C148.85,583.54,149.16,583.52,149.48,583.51 V583.85 C149.07,583.85,148.84,583.85,148.41,584.41 L147.04,586.37 C147.04,586.38,146.98,586.45,146.98,586.48 C146.98,586.52,147.74,587.18,147.85,587.26 C148.54,587.82,148.99,587.84,149.23,587.85 V588.18 C148.91,588.15,148.77,588.15,148.46,588.15 C148.07,588.15,147.4,588.18,147.24,588.18 V587.85 C147.46,587.84,147.57,587.71,147.57,587.57 C147.57,587.37,147.41,587.23,147.32,587.15 L145.79,585.84 V591.04 L144.23,590.91 V590.59 C144.99,590.59,145.09,590.51,145.09,589.98 Z " stroke-width="0" fill="black" />
<polygon points="152.45,580.79 152.45,581.23 151.41,581.23 151.41,591.21 152.45,591.21 152.45,591.65 150.97,591.65 150.97,580.79 " stroke-width="0" fill="black" />
<path d="M157.7,586.98 L157.7,587.14 L157.7,587.3 L157.69,587.47 L157.69,587.63 L157.68,587.79 L157.66,587.95 L157.65,588.11 L157.63,588.27 L157.6,588.43 L157.58,588.59 L157.54,588.75 L157.5,588.91 L157.46,589.06 L157.4,589.22 L157.34,589.37 L157.31,589.45 L157.28,589.52 C156.78,590.55,155.89,590.73,155.43,590.73 C154.78,590.73,153.98,590.45,153.54,589.45 C153.2,588.7,153.14,587.85,153.14,586.98 C153.14,586.16,153.18,585.2,153.62,584.37 C154.09,583.49,154.89,583.27,155.42,583.27 V583.51 C155,583.51,154.35,583.77,154.15,584.82 C154.04,585.48,154.04,586.48,154.04,587.12 C154.04,587.8,154.04,588.52,154.12,589.1 C154.32,590.4,155.15,590.49,155.42,590.49 C155.78,590.49,156.5,590.3,156.7,589.23 C156.81,588.62,156.81,587.79,156.81,587.12 C156.81,586.29,156.81,585.55,156.68,584.87 C156.53,583.84,155.9,583.51,155.42,583.51 H155.42 V583.27 C156,583.27,156.82,583.49,157.31,584.52 C157.65,585.27,157.7,586.12,157.7,586.98 Z " stroke-width="0" fill="black" />
<polygon points="159.88,591.65 158.4,591.65 158.4,591.21 159.46,591.21 159.46,581.23 158.4,581.23 158.4,580.79 159.88,580.79 " stroke-width="0" fill="black" />
<path d="M179.79,581.05 L179.79,581.04 L179.8,581.03 L179.8,581.01 L179.81,581 L179.81,580.99 L179.82,580.97 L179.83,580.96 L179.83,580.95 L179.84,580.94 L179.84,580.92 L179.85,580.91 L179.85,580.9 L179.86,580.89 L179.87,580.88 L179.87,580.87 L179.88,580.86 L179.89,580.85 L179.9,580.85 L179.9,580.84 L179.91,580.83 L179.92,580.83 L179.93,580.82 L179.94,580.81 L179.95,580.81 L179.96,580.8 L179.97,580.8 L179.98,580.8 L179.99,580.79 L180,580.79 L180.01,580.79 L180.02,580.79 L180.04,580.79 C180.16,580.79,180.25,580.9,180.25,581.01 C180.25,581.04,180.25,581.05,180.21,581.18 L176.49,591.38 C176.43,591.57,176.4,591.65,176.25,591.65 C176.13,591.65,176.04,591.55,176.04,591.43 C176.04,591.41,176.04,591.38,176.1,591.26 Z " stroke-width="0" fill="black" />
<path d="M182.82,591.04 L181.26,590.91 V590.59 C182.02,590.59,182.1,590.51,182.1,589.98 V584.34 C182.1,583.85,181.98,583.85,181.26,583.85 V583.51 C181.62,583.52,182.2,583.54,182.46,583.54 C182.73,583.54,183.26,583.52,183.66,583.51 V583.85 C182.95,583.85,182.82,583.85,182.82,584.34 Z " stroke-width="0" fill="black" />
<path d="M185.85,588.3 L184.33,588.18 V587.85 C185.04,587.85,185.13,587.79,185.13,587.26 V584.34 C185.13,583.85,185,583.85,184.29,583.85 V583.51 C184.63,583.52,185.22,583.54,185.47,583.54 C185.86,583.54,186.24,583.52,186.61,583.51 V583.85 C185.9,583.85,185.85,583.9,185.85,584.32 Z " stroke-width="0" fill="black" />
<path d="M185.9,590.2 L185.89,590.23 L185.89,590.26 L185.89,590.29 L185.88,590.32 L185.88,590.35 L185.87,590.38 L185.86,590.4 L185.85,590.43 L185.83,590.46 L185.82,590.48 L185.81,590.51 L185.79,590.53 L185.77,590.55 L185.76,590.57 L185.74,590.59 L185.72,590.61 L185.7,590.63 L185.67,590.65 L185.65,590.67 L185.63,590.68 L185.61,590.7 L185.58,590.71 L185.56,590.72 L185.53,590.73 L185.51,590.74 L185.48,590.75 L185.45,590.76 L185.43,590.76 L185.4,590.77 L185.37,590.77 L185.34,590.77 L185.32,590.77 C184.97,590.77,184.74,590.48,184.74,590.2 C184.74,589.9,184.97,589.62,185.32,589.62 C185.61,589.62,185.9,589.85,185.9,590.2 Z " stroke-width="0" fill="black" />
<path d="M188.13,587.24 V584.34 C188.13,583.85,188.02,583.85,187.29,583.85 V583.51 C187.68,583.52,188.23,583.54,188.52,583.54 C188.8,583.54,189.37,583.52,189.73,583.51 V583.85 C189.01,583.85,188.88,583.85,188.88,584.34 V586.34 C188.88,587.46,189.66,588.07,190.35,588.07 C191.04,588.07,191.15,587.48,191.15,586.87 V584.34 C191.15,583.85,191.04,583.85,190.3,583.85 V583.51 C190.7,583.52,191.24,583.54,191.54,583.54 C191.82,583.54,192.38,583.52,192.76,583.51 V583.85 C192.18,583.85,191.91,583.85,191.9,584.16 V586.24 C191.9,587.18,191.9,587.51,191.57,587.9 C191.41,588.09,191.05,588.3,190.43,588.3 C189.63,588.3,189.13,587.84,188.82,587.16 V588.3 L187.29,588.18 V587.85 C188.05,587.85,188.13,587.77,188.13,587.24 Z " stroke-width="0" fill="black" />
<path d="M194.21,586.01 H197.24 C197.47,586.01,197.5,586.01,197.5,586.24 C197.5,587.32,196.93,588.37,195.57,588.37 V588.13 C196.68,588.13,196.79,586.66,196.79,586.24 H194.22 C194.29,587.85,195.19,588.13,195.57,588.13 V588.37 C194.3,588.37,193.3,587.26,193.3,585.9 C193.3,584.45,194.44,583.38,195.69,583.38 C197.02,583.38,197.5,584.59,197.5,584.8 C197.5,584.91,197.43,584.93,197.36,584.93 C197.27,584.93,197.25,584.87,197.22,584.77 C196.85,583.66,195.86,583.66,195.75,583.66 C195.22,583.66,194.79,583.99,194.54,584.38 C194.21,584.91,194.21,585.62,194.21,586.01 Z " stroke-width="0" fill="black" />
<path d="M199.71,587.6 V591.04 L198.15,590.91 V590.59 C198.92,590.59,199.01,590.51,199.01,589.98 V583.51 H199.28 C199.29,583.52,199.37,583.66,199.67,584.18 C199.82,583.93,200.29,583.38,201.09,583.38 C202.39,583.38,203.51,584.45,203.51,585.85 C203.51,587.23,202.45,588.3,201.21,588.3 L201.15,588.07 C201.64,588.07,202.03,587.79,202.29,587.37 C202.57,586.93,202.6,586.3,202.6,585.87 C202.6,585.46,202.59,584.8,202.28,584.32 C202.04,583.99,201.64,583.63,201.04,583.63 C200.56,583.63,200.17,583.88,199.9,584.29 C199.76,584.52,199.76,584.55,199.76,584.74 H199.76 V586.98 C199.76,587.18,199.76,587.2,199.87,587.37 C200.29,587.98,200.89,588.07,201.15,588.07 L201.21,588.3 C200.35,588.3,199.9,587.79,199.71,587.6 Z " stroke-width="0" fill="black" />
<path d="M205.72,587.12 V588.3 L204.2,588.18 V587.85 C204.97,587.85,205.06,587.77,205.06,587.24 V584.34 C205.06,583.85,204.94,583.85,204.2,583.85 V583.51 C204.64,583.52,205.14,583.54,205.45,583.54 C205.88,583.54,206.39,583.54,206.83,583.51 V583.85 H206.59 C205.8,583.85,205.77,583.96,205.77,584.35 V586.02 C205.77,587.1,206.23,588.07,207.05,588.07 C207.12,588.07,207.16,588.07,207.17,588.05 C207.14,588.04,206.92,587.91,206.92,587.63 C206.92,587.32,207.16,587.16,207.39,587.16 C207.58,587.16,207.86,587.29,207.86,587.65 C207.86,587.99,207.52,588.3,207.05,588.3 C206.27,588.3,205.88,587.57,205.72,587.12 Z " stroke-width="0" fill="black" />
<path d="M209.39,586.01 H212.42 C212.65,586.01,212.68,586.01,212.68,586.24 C212.68,587.32,212.1,588.37,210.75,588.37 V588.13 C211.85,588.13,211.96,586.66,211.96,586.24 H209.4 C209.46,587.85,210.37,588.13,210.75,588.13 V588.37 C209.48,588.37,208.48,587.26,208.48,585.9 C208.48,584.45,209.62,583.38,210.87,583.38 C212.2,583.38,212.68,584.59,212.68,584.8 C212.68,584.91,212.6,584.93,212.54,584.93 C212.45,584.93,212.43,584.87,212.4,584.77 C212.03,583.66,211.04,583.66,210.93,583.66 C210.4,583.66,209.96,583.99,209.71,584.38 C209.39,584.91,209.39,585.62,209.39,586.01 Z " stroke-width="0" fill="black" />
<path d="M216.64,584.34 L216.64,584.29 L216.65,584.25 L216.66,584.21 L216.67,584.17 L216.68,584.13 L216.69,584.09 L216.7,584.05 L216.72,584.01 L216.73,583.97 L216.75,583.94 L216.77,583.9 L216.79,583.86 L216.81,583.83 L216.84,583.79 L216.86,583.76 L216.89,583.73 L216.92,583.7 L216.94,583.67 L216.97,583.64 L217.01,583.61 L217.04,583.59 L217.07,583.56 L217.11,583.54 L217.14,583.52 L217.18,583.51 L217.22,583.49 L217.26,583.48 L217.3,583.47 L217.34,583.46 L217.39,583.45 L217.43,583.45 L217.48,583.45 C217.71,583.45,218.37,583.6,218.37,584.48 V585.09 H218.1 V584.48 C218.1,583.85,217.84,583.77,217.71,583.77 C217.35,583.77,217.31,584.27,217.31,584.32 V586.49 C217.31,586.95,217.31,587.37,216.92,587.77 C216.5,588.2,215.95,588.37,215.43,588.37 C214.54,588.37,213.79,587.85,213.79,587.15 C213.79,586.82,214.01,586.63,214.29,586.63 C214.6,586.63,214.79,586.85,214.79,587.13 C214.79,587.26,214.75,587.62,214.25,587.63 C214.54,588.01,215.07,588.13,215.42,588.13 C215.95,588.13,216.56,587.71,216.56,586.74 V586.34 V586.12 V585.02 C216.56,583.99,215.78,583.63,215.29,583.63 C214.76,583.63,214.32,584.01,214.32,584.55 C214.32,585.15,214.78,586.04,216.56,586.12 H216.56 V586.34 C216.01,586.3,215.25,586.27,214.57,585.95 C213.76,585.59,213.48,585.02,213.48,584.54 C213.48,583.66,214.54,583.38,215.21,583.38 C215.93,583.38,216.43,583.82,216.64,584.34 Z " stroke-width="0" fill="black" />
<path d="M219.64,584.34 L219.64,584.29 L219.64,584.25 L219.64,584.21 L219.63,584.18 L219.63,584.14 L219.62,584.11 L219.62,584.08 L219.61,584.06 L219.6,584.03 L219.59,584.01 L219.58,583.99 L219.56,583.97 L219.55,583.95 L219.53,583.94 L219.51,583.92 L219.49,583.91 L219.46,583.9 L219.44,583.89 L219.41,583.88 L219.38,583.88 L219.34,583.87 L219.31,583.87 L219.27,583.86 L219.23,583.86 L219.2,583.86 L219.18,583.86 L219.16,583.86 L219.13,583.86 L219.11,583.85 L219.08,583.85 L219.06,583.85 L219.03,583.85 L219,583.85 L218.97,583.85 L218.94,583.85 L218.91,583.85 L218.88,583.85 L218.85,583.85 L218.82,583.85 L218.78,583.85 V583.51 C219.14,583.52,219.66,583.54,219.97,583.54 C220.3,583.54,220.73,583.52,221.17,583.51 V583.85 C220.44,583.85,220.31,583.85,220.31,584.34 V585.45 L221.02,586.04 C221.84,584.9,222.3,584.29,222.3,584.09 C222.3,583.88,222.12,583.85,221.91,583.85 V583.51 C222.22,583.52,222.86,583.54,223.08,583.54 C223.41,583.54,223.72,583.52,224.03,583.51 V583.85 C223.62,583.85,223.39,583.85,222.97,584.41 L221.59,586.37 C221.59,586.38,221.53,586.45,221.53,586.48 C221.53,586.52,222.3,587.18,222.41,587.26 C223.09,587.82,223.55,587.84,223.78,587.85 V588.18 C223.47,588.15,223.33,588.15,223.02,588.15 C222.62,588.15,221.95,588.18,221.8,588.18 V587.85 C222.02,587.84,222.12,587.71,222.12,587.57 C222.12,587.37,221.97,587.23,221.88,587.15 L220.34,585.84 V591.04 L218.78,590.91 V590.59 C219.55,590.59,219.64,590.51,219.64,589.98 Z " stroke-width="0" fill="black" />
<polygon points="227,580.79 227,581.23 225.95,581.23 225.95,591.21 227,591.21 227,591.65 225.52,591.65 225.52,580.79 " stroke-width="0" fill="black" />
<path d="M230.45,590.45 L230.45,590.46 L230.45,590.47 L230.45,590.48 L230.45,590.49 L230.45,590.5 L230.45,590.51 L230.45,590.52 L230.45,590.53 L230.45,590.54 L230.45,590.55 L230.45,590.56 L230.45,590.57 L230.45,590.58 L230.45,590.59 L230.45,590.59 L230.45,590.6 L230.44,590.61 L230.44,590.62 L230.44,590.62 L230.44,590.63 L230.44,590.63 L230.44,590.64 L230.44,590.65 L230.43,590.66 L230.43,590.67 L230.42,590.68 L230.42,590.69 L230.41,590.69 L230.4,590.7 L230.4,590.7 L230.39,590.71 L230.38,590.71 L230.37,590.71 L230.37,590.72 L230.36,590.72 L230.36,590.72 L230.35,590.72 L230.34,590.72 L230.34,590.72 L230.33,590.72 L230.32,590.72 L230.31,590.72 L230.31,590.72 L230.3,590.72 L230.29,590.73 L230.28,590.73 L230.27,590.73 L230.26,590.73 L230.25,590.73 L230.24,590.73 L230.23,590.73 L230.22,590.73 L230.21,590.73 L230.2,590.73 C229.53,590.04,228.57,590.04,228.23,590.04 V589.71 C228.45,589.71,229.09,589.71,229.65,589.99 V584.37 C229.65,583.98,229.62,583.85,228.64,583.85 H228.29 V583.51 C228.67,583.54,229.62,583.54,230.04,583.54 C230.48,583.54,231.43,583.54,231.81,583.51 V583.85 H231.46 C230.48,583.85,230.45,583.96,230.45,584.37 Z " stroke-width="0" fill="black" />
<polygon points="234.44,591.65 232.95,591.65 232.95,591.21 234.02,591.21 234.02,581.23 232.95,581.23 232.95,580.79 234.44,580.79 " stroke-width="0" fill="black" />
<path d="M254.34,581.05 L254.35,581.04 L254.35,581.03 L254.36,581.01 L254.36,581 L254.37,580.99 L254.37,580.97 L254.38,580.96 L254.39,580.95 L254.39,580.94 L254.4,580.92 L254.4,580.91 L254.41,580.9 L254.42,580.89 L254.42,580.88 L254.43,580.87 L254.44,580.86 L254.44,580.85 L254.45,580.85 L254.46,580.84 L254.47,580.83 L254.47,580.83 L254.48,580.82 L254.49,580.81 L254.5,580.81 L254.51,580.8 L254.52,580.8 L254.53,580.8 L254.54,580.79 L254.55,580.79 L254.56,580.79 L254.58,580.79 L254.59,580.79 C254.71,580.79,254.81,580.9,254.81,581.01 C254.81,581.04,254.81,581.05,254.76,581.18 L251.04,591.38 C250.98,591.57,250.95,591.65,250.81,591.65 C250.68,591.65,250.59,591.55,250.59,591.43 C250.59,591.41,250.59,591.38,250.65,591.26 Z " stroke-width="0" fill="black" />
<path d="M257.37,591.04 L255.8,590.91 V590.59 C256.57,590.59,256.65,590.51,256.65,589.98 V584.34 C256.65,583.85,256.52,583.85,255.8,583.85 V583.51 C256.16,583.52,256.74,583.54,257.01,583.54 C257.27,583.54,257.8,583.52,258.21,583.51 V583.85 C257.49,583.85,257.37,583.85,257.37,584.34 Z " stroke-width="0" fill="black" />
<path d="M260.39,588.3 L258.88,588.18 V587.85 C259.58,587.85,259.68,587.79,259.68,587.26 V584.34 C259.68,583.85,259.55,583.85,258.83,583.85 V583.51 C259.18,583.52,259.77,583.54,260.02,583.54 C260.41,583.54,260.79,583.52,261.16,583.51 V583.85 C260.44,583.85,260.39,583.9,260.39,584.32 Z " stroke-width="0" fill="black" />
<path d="M260.44,590.2 L260.44,590.23 L260.44,590.26 L260.43,590.29 L260.43,590.32 L260.42,590.35 L260.41,590.38 L260.4,590.4 L260.39,590.43 L260.38,590.46 L260.37,590.48 L260.35,590.51 L260.34,590.53 L260.32,590.55 L260.3,590.57 L260.28,590.59 L260.26,590.61 L260.24,590.63 L260.22,590.65 L260.2,590.67 L260.18,590.68 L260.15,590.7 L260.13,590.71 L260.1,590.72 L260.08,590.73 L260.05,590.74 L260.03,590.75 L260,590.76 L259.97,590.76 L259.95,590.77 L259.92,590.77 L259.89,590.77 L259.86,590.77 C259.52,590.77,259.29,590.48,259.29,590.2 C259.29,589.9,259.52,589.62,259.86,589.62 C260.16,589.62,260.44,589.85,260.44,590.2 Z " stroke-width="0" fill="black" />
<path d="M262.69,587.24 V584.34 C262.69,583.85,262.58,583.85,261.84,583.85 V583.51 C262.23,583.52,262.78,583.54,263.08,583.54 C263.36,583.54,263.92,583.52,264.28,583.51 V583.85 C263.56,583.85,263.44,583.85,263.44,584.34 V586.34 C263.44,587.46,264.22,588.07,264.91,588.07 C265.59,588.07,265.7,587.48,265.7,586.87 V584.34 C265.7,583.85,265.59,583.85,264.86,583.85 V583.51 C265.25,583.52,265.8,583.54,266.09,583.54 C266.38,583.54,266.94,583.52,267.31,583.51 V583.85 C266.73,583.85,266.47,583.85,266.45,584.16 V586.24 C266.45,587.18,266.45,587.51,266.12,587.9 C265.97,588.09,265.61,588.3,264.98,588.3 C264.19,588.3,263.69,587.84,263.38,587.16 V588.3 L261.84,588.18 V587.85 C262.61,587.85,262.69,587.77,262.69,587.24 Z " stroke-width="0" fill="black" />
<path d="M268.76,586.01 H271.79 C272.03,586.01,272.06,586.01,272.06,586.24 C272.06,587.32,271.48,588.37,270.12,588.37 V588.13 C271.23,588.13,271.34,586.66,271.34,586.24 H268.78 C268.84,587.85,269.75,588.13,270.12,588.13 V588.37 C268.86,588.37,267.86,587.26,267.86,585.9 C267.86,584.45,269,583.38,270.25,583.38 C271.57,583.38,272.06,584.59,272.06,584.8 C272.06,584.91,271.98,584.93,271.92,584.93 C271.82,584.93,271.81,584.87,271.78,584.77 C271.4,583.66,270.42,583.66,270.31,583.66 C269.78,583.66,269.34,583.99,269.09,584.38 C268.76,584.91,268.76,585.62,268.76,586.01 Z " stroke-width="0" fill="black" />
<path d="M274.26,587.6 V591.04 L272.7,590.91 V590.59 C273.46,590.59,273.56,590.51,273.56,589.98 V583.51 H273.82 C273.84,583.52,273.92,583.66,274.21,584.18 C274.37,583.93,274.84,583.38,275.64,583.38 C276.93,583.38,278.06,584.45,278.06,585.85 C278.06,587.23,277,588.3,275.76,588.3 L275.7,588.07 C276.18,588.07,276.57,587.79,276.84,587.37 C277.12,586.93,277.15,586.3,277.15,585.87 C277.15,585.46,277.14,584.8,276.82,584.32 C276.59,583.99,276.18,583.63,275.59,583.63 C275.11,583.63,274.71,583.88,274.45,584.29 C274.31,584.52,274.31,584.55,274.31,584.74 H274.31 V586.98 C274.31,587.18,274.31,587.2,274.42,587.37 C274.84,587.98,275.43,588.07,275.7,588.07 L275.76,588.3 C274.9,588.3,274.45,587.79,274.26,587.6 Z " stroke-width="0" fill="black" />
<path d="M280.27,587.12 V588.3 L278.76,588.18 V587.85 C279.52,587.85,279.62,587.77,279.62,587.24 V584.34 C279.62,583.85,279.49,583.85,278.76,583.85 V583.51 C279.2,583.52,279.7,583.54,280.01,583.54 C280.43,583.54,280.95,583.54,281.38,583.51 V583.85 H281.15 C280.35,583.85,280.32,583.96,280.32,584.35 V586.02 C280.32,587.1,280.79,588.07,281.6,588.07 C281.68,588.07,281.71,588.07,281.73,588.05 C281.7,588.04,281.48,587.91,281.48,587.63 C281.48,587.32,281.71,587.16,281.95,587.16 C282.13,587.16,282.41,587.29,282.41,587.65 C282.41,587.99,282.07,588.3,281.6,588.3 C280.82,588.3,280.43,587.57,280.27,587.12 Z " stroke-width="0" fill="black" />
<path d="M283.93,586.01 H286.96 C287.2,586.01,287.23,586.01,287.23,586.24 C287.23,587.32,286.65,588.37,285.29,588.37 V588.13 C286.4,588.13,286.51,586.66,286.51,586.24 H283.95 C284.01,587.85,284.92,588.13,285.29,588.13 V588.37 C284.03,588.37,283.03,587.26,283.03,585.9 C283.03,584.45,284.17,583.38,285.42,583.38 C286.75,583.38,287.23,584.59,287.23,584.8 C287.23,584.91,287.15,584.93,287.09,584.93 C287,584.93,286.98,584.87,286.95,584.77 C286.57,583.66,285.59,583.66,285.48,583.66 C284.95,583.66,284.51,583.99,284.26,584.38 C283.93,584.91,283.93,585.62,283.93,586.01 Z " stroke-width="0" fill="black" />
<path d="M291.19,584.34 L291.2,584.29 L291.2,584.25 L291.21,584.21 L291.22,584.17 L291.23,584.13 L291.24,584.09 L291.26,584.05 L291.27,584.01 L291.29,583.97 L291.31,583.94 L291.33,583.9 L291.35,583.86 L291.37,583.83 L291.39,583.79 L291.42,583.76 L291.44,583.73 L291.47,583.7 L291.5,583.67 L291.53,583.64 L291.56,583.61 L291.59,583.59 L291.63,583.56 L291.66,583.54 L291.7,583.52 L291.74,583.51 L291.78,583.49 L291.82,583.48 L291.86,583.47 L291.9,583.46 L291.94,583.45 L291.99,583.45 L292.04,583.45 C292.27,583.45,292.93,583.6,292.93,584.48 V585.09 H292.66 V584.48 C292.66,583.85,292.39,583.77,292.27,583.77 C291.91,583.77,291.86,584.27,291.86,584.32 V586.49 C291.86,586.95,291.86,587.37,291.47,587.77 C291.05,588.2,290.5,588.37,289.99,588.37 C289.1,588.37,288.35,587.85,288.35,587.15 C288.35,586.82,288.57,586.63,288.85,586.63 C289.16,586.63,289.35,586.85,289.35,587.13 C289.35,587.26,289.3,587.62,288.8,587.63 C289.1,588.01,289.63,588.13,289.97,588.13 C290.5,588.13,291.11,587.71,291.11,586.74 V586.34 V586.12 V585.02 C291.11,583.99,290.33,583.63,289.85,583.63 C289.32,583.63,288.88,584.01,288.88,584.55 C288.88,585.15,289.33,586.04,291.11,586.12 H291.11 V586.34 C290.57,586.3,289.8,586.27,289.13,585.95 C288.32,585.59,288.04,585.02,288.04,584.54 C288.04,583.66,289.1,583.38,289.77,583.38 C290.49,583.38,290.99,583.82,291.19,584.34 Z " stroke-width="0" fill="black" />
<path d="M294.19,584.34 L294.19,584.29 L294.19,584.25 L294.18,584.21 L294.18,584.18 L294.18,584.14 L294.17,584.11 L294.16,584.08 L294.16,584.06 L294.15,584.03 L294.14,584.01 L294.12,583.99 L294.11,583.97 L294.09,583.95 L294.08,583.94 L294.06,583.92 L294.03,583.91 L294.01,583.9 L293.98,583.89 L293.95,583.88 L293.92,583.88 L293.89,583.87 L293.85,583.87 L293.81,583.86 L293.77,583.86 L293.75,583.86 L293.73,583.86 L293.7,583.86 L293.68,583.86 L293.66,583.85 L293.63,583.85 L293.6,583.85 L293.58,583.85 L293.55,583.85 L293.52,583.85 L293.49,583.85 L293.46,583.85 L293.43,583.85 L293.4,583.85 L293.36,583.85 L293.33,583.85 V583.51 C293.69,583.52,294.2,583.54,294.52,583.54 C294.84,583.54,295.28,583.52,295.72,583.51 V583.85 C294.98,583.85,294.86,583.85,294.86,584.34 V585.45 L295.56,586.04 C296.39,584.9,296.84,584.29,296.84,584.09 C296.84,583.88,296.67,583.85,296.45,583.85 V583.51 C296.77,583.52,297.41,583.54,297.62,583.54 C297.95,583.54,298.27,583.52,298.58,583.51 V583.85 C298.17,583.85,297.94,583.85,297.52,584.41 L296.14,586.37 C296.14,586.38,296.08,586.45,296.08,586.48 C296.08,586.52,296.84,587.18,296.95,587.26 C297.64,587.82,298.09,587.84,298.33,587.85 V588.18 C298.02,588.15,297.88,588.15,297.56,588.15 C297.17,588.15,296.5,588.18,296.34,588.18 V587.85 C296.56,587.84,296.67,587.71,296.67,587.57 C296.67,587.37,296.52,587.23,296.42,587.15 L294.89,585.84 V591.04 L293.33,590.91 V590.59 C294.09,590.59,294.19,590.51,294.19,589.98 Z " stroke-width="0" fill="black" />
<polygon points="301.55,580.79 301.55,581.23 300.51,581.23 300.51,591.21 301.55,591.21 301.55,591.65 300.07,591.65 300.07,580.79 " stroke-width="0" fill="black" />
<path d="M303.19,584.34 L304.35,585.46 C306.04,586.96,306.69,587.54,306.69,588.63 C306.69,589.87,305.71,590.73,304.39,590.73 C303.16,590.73,302.36,589.74,302.36,588.77 C302.36,588.16,302.89,588.16,302.94,588.16 C303.11,588.16,303.5,588.29,303.5,588.74 C303.5,589.02,303.3,589.3,302.93,589.3 C302.83,589.3,302.82,589.3,302.79,589.29 C303.04,589.99,303.61,590.4,304.25,590.4 C305.24,590.4,305.71,589.52,305.71,588.63 C305.71,587.76,305.16,586.9,304.57,586.23 L302.47,583.91 C302.36,583.79,302.36,583.77,302.36,583.51 H306.38 L306.69,585.4 H306.41 C306.36,585.07,306.29,584.59,306.18,584.43 C306.1,584.34,305.38,584.34,305.14,584.34 Z " stroke-width="0" fill="black" />
<polygon points="308.98,591.65 307.5,591.65 307.5,591.21 308.56,591.21 308.56,581.23 307.5,581.23 307.5,580.79 308.98,580.79 " stroke-width="0" fill="black" />
<path d="M328.89,581.05 L328.89,581.04 L328.9,581.03 L328.9,581.01 L328.91,581 L328.92,580.99 L328.92,580.97 L328.93,580.96 L328.93,580.95 L328.94,580.94 L328.94,580.92 L328.95,580.91 L328.96,580.9 L328.96,580.89 L328.97,580.88 L328.98,580.87 L328.98,580.86 L328.99,580.85 L329,580.85 L329,580.84 L329.01,580.83 L329.02,580.83 L329.03,580.82 L329.04,580.81 L329.05,580.81 L329.06,580.8 L329.07,580.8 L329.08,580.8 L329.09,580.79 L329.1,580.79 L329.11,580.79 L329.12,580.79 L329.14,580.79 C329.26,580.79,329.36,580.9,329.36,581.01 C329.36,581.04,329.36,581.05,329.31,581.18 L325.59,591.38 C325.53,591.57,325.5,591.65,325.36,591.65 C325.23,591.65,325.14,591.55,325.14,591.43 C325.14,591.41,325.14,591.38,325.2,591.26 Z " stroke-width="0" fill="black" />
<path d="M331.91,591.04 L330.35,590.91 V590.59 C331.12,590.59,331.2,590.51,331.2,589.98 V584.34 C331.2,583.85,331.07,583.85,330.35,583.85 V583.51 C330.71,583.52,331.29,583.54,331.55,583.54 C331.82,583.54,332.35,583.52,332.76,583.51 V583.85 C332.04,583.85,331.91,583.85,331.91,584.34 Z " stroke-width="0" fill="black" />
<path d="M334.94,588.3 L333.43,588.18 V587.85 C334.13,587.85,334.22,587.79,334.22,587.26 V584.34 C334.22,583.85,334.1,583.85,333.38,583.85 V583.51 C333.72,583.52,334.32,583.54,334.57,583.54 C334.96,583.54,335.33,583.52,335.71,583.51 V583.85 C334.99,583.85,334.94,583.9,334.94,584.32 Z " stroke-width="0" fill="black" />
<path d="M334.99,590.2 L334.99,590.23 L334.98,590.26 L334.98,590.29 L334.98,590.32 L334.97,590.35 L334.96,590.38 L334.95,590.4 L334.94,590.43 L334.93,590.46 L334.91,590.48 L334.9,590.51 L334.88,590.53 L334.87,590.55 L334.85,590.57 L334.83,590.59 L334.81,590.61 L334.79,590.63 L334.77,590.65 L334.75,590.67 L334.72,590.68 L334.7,590.7 L334.68,590.71 L334.65,590.72 L334.63,590.73 L334.6,590.74 L334.57,590.75 L334.55,590.76 L334.52,590.76 L334.49,590.77 L334.47,590.77 L334.44,590.77 L334.41,590.77 C334.07,590.77,333.83,590.48,333.83,590.2 C333.83,589.9,334.07,589.62,334.41,589.62 C334.71,589.62,334.99,589.85,334.99,590.2 Z " stroke-width="0" fill="black" />
<path d="M337.23,587.24 V584.34 C337.23,583.85,337.12,583.85,336.39,583.85 V583.51 C336.78,583.52,337.33,583.54,337.62,583.54 C337.91,583.54,338.47,583.52,338.83,583.51 V583.85 C338.11,583.85,337.98,583.85,337.98,584.34 V586.34 C337.98,587.46,338.77,588.07,339.45,588.07 C340.14,588.07,340.25,587.48,340.25,586.87 V584.34 C340.25,583.85,340.14,583.85,339.41,583.85 V583.51 C339.8,583.52,340.34,583.54,340.64,583.54 C340.92,583.54,341.48,583.52,341.86,583.51 V583.85 C341.28,583.85,341.02,583.85,341,584.16 V586.24 C341,587.18,341,587.51,340.67,587.9 C340.52,588.09,340.16,588.3,339.53,588.3 C338.73,588.3,338.23,587.84,337.92,587.16 V588.3 L336.39,588.18 V587.85 C337.16,587.85,337.23,587.77,337.23,587.24 Z " stroke-width="0" fill="black" />
<path d="M343.31,586.01 H346.34 C346.57,586.01,346.61,586.01,346.61,586.24 C346.61,587.32,346.03,588.37,344.67,588.37 V588.13 C345.78,588.13,345.89,586.66,345.89,586.24 H343.32 C343.39,587.85,344.29,588.13,344.67,588.13 V588.37 C343.4,588.37,342.4,587.26,342.4,585.9 C342.4,584.45,343.54,583.38,344.79,583.38 C346.12,583.38,346.61,584.59,346.61,584.8 C346.61,584.91,346.53,584.93,346.46,584.93 C346.37,584.93,346.36,584.87,346.32,584.77 C345.95,583.66,344.96,583.66,344.86,583.66 C344.32,583.66,343.89,583.99,343.64,584.38 C343.31,584.91,343.31,585.62,343.31,586.01 Z " stroke-width="0" fill="black" />
<path d="M348.81,587.6 V591.04 L347.25,590.91 V590.59 C348.01,590.59,348.11,590.51,348.11,589.98 V583.51 H348.37 C348.39,583.52,348.46,583.66,348.76,584.18 C348.92,583.93,349.39,583.38,350.18,583.38 C351.48,583.38,352.61,584.45,352.61,585.85 C352.61,587.23,351.54,588.3,350.31,588.3 L350.25,588.07 C350.73,588.07,351.12,587.79,351.39,587.37 C351.67,586.93,351.7,586.3,351.7,585.87 C351.7,585.46,351.68,584.8,351.37,584.32 C351.14,583.99,350.73,583.63,350.14,583.63 C349.65,583.63,349.26,583.88,349,584.29 C348.86,584.52,348.86,584.55,348.86,584.74 H348.86 V586.98 C348.86,587.18,348.86,587.2,348.96,587.37 C349.39,587.98,349.98,588.07,350.25,588.07 L350.31,588.3 C349.45,588.3,349,587.79,348.81,587.6 Z " stroke-width="0" fill="black" />
<path d="M354.82,587.12 V588.3 L353.3,588.18 V587.85 C354.07,587.85,354.16,587.77,354.16,587.24 V584.34 C354.16,583.85,354.04,583.85,353.3,583.85 V583.51 C353.74,583.52,354.24,583.54,354.55,583.54 C354.98,583.54,355.49,583.54,355.93,583.51 V583.85 H355.7 C354.9,583.85,354.87,583.96,354.87,584.35 V586.02 C354.87,587.1,355.34,588.07,356.15,588.07 C356.23,588.07,356.26,588.07,356.27,588.05 C356.24,588.04,356.02,587.91,356.02,587.63 C356.02,587.32,356.26,587.16,356.49,587.16 C356.68,587.16,356.96,587.29,356.96,587.65 C356.96,587.99,356.62,588.3,356.15,588.3 C355.37,588.3,354.98,587.57,354.82,587.12 Z " stroke-width="0" fill="black" />
<path d="M358.49,586.01 H361.52 C361.75,586.01,361.79,586.01,361.79,586.24 C361.79,587.32,361.21,588.37,359.85,588.37 V588.13 C360.96,588.13,361.07,586.66,361.07,586.24 H358.5 C358.57,587.85,359.47,588.13,359.85,588.13 V588.37 C358.58,588.37,357.58,587.26,357.58,585.9 C357.58,584.45,358.72,583.38,359.97,583.38 C361.3,583.38,361.79,584.59,361.79,584.8 C361.79,584.91,361.71,584.93,361.64,584.93 C361.55,584.93,361.54,584.87,361.5,584.77 C361.13,583.66,360.14,583.66,360.04,583.66 C359.5,583.66,359.07,583.99,358.82,584.38 C358.49,584.91,358.49,585.62,358.49,586.01 Z " stroke-width="0" fill="black" />
<path d="M365.74,584.34 L365.74,584.29 L365.75,584.25 L365.76,584.21 L365.77,584.17 L365.78,584.13 L365.79,584.09 L365.8,584.05 L365.82,584.01 L365.84,583.97 L365.85,583.94 L365.87,583.9 L365.89,583.86 L365.92,583.83 L365.94,583.79 L365.96,583.76 L365.99,583.73 L366.02,583.7 L366.05,583.67 L366.08,583.64 L366.11,583.61 L366.14,583.59 L366.17,583.56 L366.21,583.54 L366.25,583.52 L366.28,583.51 L366.32,583.49 L366.36,583.48 L366.4,583.47 L366.45,583.46 L366.49,583.45 L366.54,583.45 L366.58,583.45 C366.82,583.45,367.47,583.6,367.47,584.48 V585.09 H367.21 V584.48 C367.21,583.85,366.94,583.77,366.82,583.77 C366.46,583.77,366.41,584.27,366.41,584.32 V586.49 C366.41,586.95,366.41,587.37,366.02,587.77 C365.6,588.2,365.05,588.37,364.54,588.37 C363.64,588.37,362.89,587.85,362.89,587.15 C362.89,586.82,363.11,586.63,363.39,586.63 C363.71,586.63,363.89,586.85,363.89,587.13 C363.89,587.26,363.85,587.62,363.35,587.63 C363.64,588.01,364.18,588.13,364.52,588.13 C365.05,588.13,365.66,587.71,365.66,586.74 V586.34 V586.12 V585.02 C365.66,583.99,364.88,583.63,364.39,583.63 C363.86,583.63,363.43,584.01,363.43,584.55 C363.43,585.15,363.88,586.04,365.66,586.12 H365.66 V586.34 C365.11,586.3,364.35,586.27,363.68,585.95 C362.86,585.59,362.58,585.02,362.58,584.54 C362.58,583.66,363.64,583.38,364.32,583.38 C365.04,583.38,365.54,583.82,365.74,584.34 Z " stroke-width="0" fill="black" />
<path d="M368.74,584.34 L368.74,584.29 L368.74,584.25 L368.74,584.21 L368.74,584.18 L368.73,584.14 L368.73,584.11 L368.72,584.08 L368.71,584.06 L368.7,584.03 L368.69,584.01 L368.68,583.99 L368.66,583.97 L368.65,583.95 L368.63,583.94 L368.61,583.92 L368.59,583.91 L368.56,583.9 L368.54,583.89 L368.51,583.88 L368.48,583.88 L368.44,583.87 L368.41,583.87 L368.37,583.86 L368.33,583.86 L368.3,583.86 L368.28,583.86 L368.26,583.86 L368.23,583.86 L368.21,583.85 L368.18,583.85 L368.16,583.85 L368.13,583.85 L368.1,583.85 L368.07,583.85 L368.04,583.85 L368.01,583.85 L367.98,583.85 L367.95,583.85 L367.92,583.85 L367.88,583.85 V583.51 C368.24,583.52,368.76,583.54,369.07,583.54 C369.4,583.54,369.84,583.52,370.27,583.51 V583.85 C369.54,583.85,369.41,583.85,369.41,584.34 V585.45 L370.12,586.04 C370.95,584.9,371.4,584.29,371.4,584.09 C371.4,583.88,371.23,583.85,371.01,583.85 V583.51 C371.32,583.52,371.96,583.54,372.18,583.54 C372.51,583.54,372.82,583.52,373.13,583.51 V583.85 C372.73,583.85,372.49,583.85,372.07,584.41 L370.7,586.37 C370.7,586.38,370.63,586.45,370.63,586.48 C370.63,586.52,371.4,587.18,371.51,587.26 C372.2,587.82,372.65,587.84,372.88,587.85 V588.18 C372.57,588.15,372.43,588.15,372.12,588.15 C371.73,588.15,371.05,588.18,370.9,588.18 V587.85 C371.12,587.84,371.23,587.71,371.23,587.57 C371.23,587.37,371.07,587.23,370.98,587.15 L369.45,585.84 V591.04 L367.88,590.91 V590.59 C368.65,590.59,368.74,590.51,368.74,589.98 Z " stroke-width="0" fill="black" />
<polygon points="376.1,580.79 376.1,581.23 375.05,581.23 375.05,591.21 376.1,591.21 376.1,591.65 374.62,591.65 374.62,580.79 " stroke-width="0" fill="black" />
<path d="M379.5,587.32 L379.59,587.35 L379.67,587.38 L379.75,587.42 L379.83,587.45 L379.9,587.49 L379.98,587.53 L380.05,587.58 L380.12,587.62 L380.19,587.67 L380.25,587.72 L380.32,587.78 L380.38,587.83 L380.44,587.89 L380.5,587.95 L380.55,588.01 L380.6,588.07 L380.65,588.13 L380.7,588.2 L380.74,588.27 L380.79,588.33 L380.82,588.4 L380.86,588.48 L380.89,588.55 L380.92,588.62 L380.95,588.7 L380.97,588.77 L380.99,588.85 L381.01,588.92 L381.02,589 L381.03,589.08 L381.03,589.16 L381.04,589.24 C381.04,590.13,380.07,590.73,379.04,590.73 C377.94,590.73,377.11,590.09,377.11,589.26 C377.11,588.9,377.35,588.7,377.66,588.7 C378,588.7,378.22,588.93,378.22,589.24 C378.22,589.79,377.71,589.79,377.55,589.79 C377.88,590.32,378.6,590.46,378.99,590.46 C379.44,590.46,380.04,590.23,380.04,589.24 C380.04,589.12,380,588.49,379.72,588.01 C379.39,587.49,379.04,587.46,378.75,587.45 C378.68,587.43,378.41,587.41,378.33,587.41 C378.25,587.4,378.18,587.4,378.18,587.29 C378.18,587.16,378.25,587.16,378.44,587.16 H378.91 C379.8,587.16,380.21,586.43,380.21,585.37 C380.21,583.88,379.46,583.57,378.97,583.57 C378.5,583.57,377.69,583.76,377.32,584.4 C377.69,584.34,378.04,584.59,378.04,584.99 C378.04,585.38,377.74,585.6,377.43,585.6 C377.16,585.6,376.82,585.45,376.82,584.98 C376.82,583.99,377.83,583.27,379,583.27 C380.33,583.27,381.32,584.26,381.32,585.37 C381.32,586.26,380.64,587.1,379.5,587.32 Z " stroke-width="0" fill="black" />
<polygon points="383.54,591.65 382.05,591.65 382.05,591.21 383.12,591.21 383.12,581.23 382.05,581.23 382.05,580.79 383.54,580.79 " stroke-width="0" fill="black" />
<path d="M403.43,581.05 L403.44,581.04 L403.45,581.03 L403.45,581.01 L403.46,581 L403.46,580.99 L403.47,580.97 L403.47,580.96 L403.48,580.95 L403.49,580.94 L403.49,580.92 L403.5,580.91 L403.5,580.9 L403.51,580.89 L403.52,580.88 L403.52,580.87 L403.53,580.86 L403.54,580.85 L403.54,580.85 L403.55,580.84 L403.56,580.83 L403.57,580.83 L403.58,580.82 L403.58,580.81 L403.59,580.81 L403.6,580.8 L403.61,580.8 L403.62,580.8 L403.64,580.79 L403.65,580.79 L403.66,580.79 L403.67,580.79 L403.68,580.79 C403.81,580.79,403.9,580.9,403.9,581.01 C403.9,581.04,403.9,581.05,403.86,581.18 L400.14,591.38 C400.07,591.57,400.04,591.65,399.9,591.65 C399.78,591.65,399.68,591.55,399.68,591.43 C399.68,591.41,399.68,591.38,399.75,591.26 Z " stroke-width="0" fill="black" />
<path d="M406.47,591.04 L404.91,590.91 V590.59 C405.67,590.59,405.75,590.51,405.75,589.98 V584.34 C405.75,583.85,405.62,583.85,404.91,583.85 V583.51 C405.27,583.52,405.84,583.54,406.11,583.54 C406.38,583.54,406.91,583.52,407.31,583.51 V583.85 C406.59,583.85,406.47,583.85,406.47,584.34 Z " stroke-width="0" fill="black" />
<path d="M409.5,588.3 L407.98,588.18 V587.85 C408.68,587.85,408.78,587.79,408.78,587.26 V584.34 C408.78,583.85,408.65,583.85,407.93,583.85 V583.51 C408.28,583.52,408.87,583.54,409.12,583.54 C409.51,583.54,409.89,583.52,410.26,583.51 V583.85 C409.54,583.85,409.5,583.9,409.5,584.32 Z " stroke-width="0" fill="black" />
<path d="M409.54,590.2 L409.54,590.23 L409.54,590.26 L409.54,590.29 L409.53,590.32 L409.52,590.35 L409.52,590.38 L409.51,590.4 L409.49,590.43 L409.48,590.46 L409.47,590.48 L409.45,590.51 L409.44,590.53 L409.42,590.55 L409.4,590.57 L409.39,590.59 L409.37,590.61 L409.34,590.63 L409.32,590.65 L409.3,590.67 L409.28,590.68 L409.25,590.7 L409.23,590.71 L409.21,590.72 L409.18,590.73 L409.15,590.74 L409.13,590.75 L409.1,590.76 L409.08,590.76 L409.05,590.77 L409.02,590.77 L408.99,590.77 L408.96,590.77 C408.62,590.77,408.39,590.48,408.39,590.2 C408.39,589.9,408.62,589.62,408.96,589.62 C409.26,589.62,409.54,589.85,409.54,590.2 Z " stroke-width="0" fill="black" />
<path d="M411.79,587.24 V584.34 C411.79,583.85,411.68,583.85,410.95,583.85 V583.51 C411.34,583.52,411.88,583.54,412.18,583.54 C412.46,583.54,413.02,583.52,413.38,583.51 V583.85 C412.66,583.85,412.54,583.85,412.54,584.34 V586.34 C412.54,587.46,413.32,588.07,414.01,588.07 C414.7,588.07,414.8,587.48,414.8,586.87 V584.34 C414.8,583.85,414.7,583.85,413.96,583.85 V583.51 C414.35,583.52,414.9,583.54,415.2,583.54 C415.48,583.54,416.04,583.52,416.41,583.51 V583.85 C415.84,583.85,415.57,583.85,415.55,584.16 V586.24 C415.55,587.18,415.55,587.51,415.23,587.9 C415.07,588.09,414.71,588.3,414.09,588.3 C413.29,588.3,412.79,587.84,412.48,587.16 V588.3 L410.95,588.18 V587.85 C411.71,587.85,411.79,587.77,411.79,587.24 Z " stroke-width="0" fill="black" />
<path d="M417.86,586.01 H420.89 C421.12,586.01,421.15,586.01,421.15,586.24 C421.15,587.32,420.57,588.37,419.21,588.37 V588.13 C420.32,588.13,420.43,586.66,420.43,586.24 H417.87 C417.93,587.85,418.84,588.13,419.21,588.13 V588.37 C417.95,588.37,416.95,587.26,416.95,585.9 C416.95,584.45,418.09,583.38,419.34,583.38 C420.67,583.38,421.15,584.59,421.15,584.8 C421.15,584.91,421.07,584.93,421.01,584.93 C420.92,584.93,420.9,584.87,420.87,584.77 C420.5,583.66,419.51,583.66,419.4,583.66 C418.87,583.66,418.43,583.99,418.18,584.38 C417.86,584.91,417.86,585.62,417.86,586.01 Z " stroke-width="0" fill="black" />
<path d="M423.36,587.6 V591.04 L421.8,590.91 V590.59 C422.57,590.59,422.66,590.51,422.66,589.98 V583.51 H422.93 C422.94,583.52,423.02,583.66,423.32,584.18 C423.47,583.93,423.94,583.38,424.74,583.38 C426.04,583.38,427.16,584.45,427.16,585.85 C427.16,587.23,426.1,588.3,424.86,588.3 L424.8,588.07 C425.29,588.07,425.68,587.79,425.94,587.37 C426.22,586.93,426.25,586.3,426.25,585.87 C426.25,585.46,426.24,584.8,425.93,584.32 C425.69,583.99,425.29,583.63,424.69,583.63 C424.21,583.63,423.82,583.88,423.55,584.29 C423.41,584.52,423.41,584.55,423.41,584.74 H423.41 V586.98 C423.41,587.18,423.41,587.2,423.52,587.37 C423.94,587.98,424.54,588.07,424.8,588.07 L424.86,588.3 C424,588.3,423.55,587.79,423.36,587.6 Z " stroke-width="0" fill="black" />
<path d="M429.38,587.12 V588.3 L427.86,588.18 V587.85 C428.62,587.85,428.72,587.77,428.72,587.24 V584.34 C428.72,583.85,428.59,583.85,427.86,583.85 V583.51 C428.3,583.52,428.8,583.54,429.11,583.54 C429.53,583.54,430.05,583.54,430.48,583.51 V583.85 H430.25 C429.45,583.85,429.42,583.96,429.42,584.35 V586.02 C429.42,587.1,429.89,588.07,430.7,588.07 C430.78,588.07,430.81,588.07,430.83,588.05 C430.8,588.04,430.58,587.91,430.58,587.63 C430.58,587.32,430.81,587.16,431.05,587.16 C431.23,587.16,431.52,587.29,431.52,587.65 C431.52,587.99,431.17,588.3,430.7,588.3 C429.92,588.3,429.53,587.57,429.38,587.12 Z " stroke-width="0" fill="black" />
<path d="M433.04,586.01 H436.07 C436.3,586.01,436.33,586.01,436.33,586.24 C436.33,587.32,435.75,588.37,434.39,588.37 V588.13 C435.5,588.13,435.61,586.66,435.61,586.24 H433.05 C433.11,587.85,434.02,588.13,434.39,588.13 V588.37 C433.13,588.37,432.13,587.26,432.13,585.9 C432.13,584.45,433.27,583.38,434.52,583.38 C435.85,583.38,436.33,584.59,436.33,584.8 C436.33,584.91,436.25,584.93,436.19,584.93 C436.1,584.93,436.08,584.87,436.05,584.77 C435.68,583.66,434.69,583.66,434.58,583.66 C434.05,583.66,433.61,583.99,433.36,584.38 C433.04,584.91,433.04,585.62,433.04,586.01 Z " stroke-width="0" fill="black" />
<path d="M440.29,584.34 L440.29,584.29 L440.3,584.25 L440.3,584.21 L440.31,584.17 L440.33,584.13 L440.34,584.09 L440.35,584.05 L440.37,584.01 L440.38,583.97 L440.4,583.94 L440.42,583.9 L440.44,583.86 L440.46,583.83 L440.49,583.79 L440.51,583.76 L440.54,583.73 L440.56,583.7 L440.59,583.67 L440.62,583.64 L440.65,583.61 L440.69,583.59 L440.72,583.56 L440.76,583.54 L440.79,583.52 L440.83,583.51 L440.87,583.49 L440.91,583.48 L440.95,583.47 L440.99,583.46 L441.04,583.45 L441.08,583.45 L441.13,583.45 C441.36,583.45,442.02,583.6,442.02,584.48 V585.09 H441.75 V584.48 C441.75,583.85,441.49,583.77,441.36,583.77 C441,583.77,440.96,584.27,440.96,584.32 V586.49 C440.96,586.95,440.96,587.37,440.57,587.77 C440.14,588.2,439.6,588.37,439.08,588.37 C438.19,588.37,437.44,587.85,437.44,587.15 C437.44,586.82,437.66,586.63,437.94,586.63 C438.25,586.63,438.44,586.85,438.44,587.13 C438.44,587.26,438.39,587.62,437.89,587.63 C438.19,588.01,438.72,588.13,439.07,588.13 C439.6,588.13,440.21,587.71,440.21,586.74 V586.34 V586.12 V585.02 C440.21,583.99,439.43,583.63,438.94,583.63 C438.41,583.63,437.97,584.01,437.97,584.55 C437.97,585.15,438.43,586.04,440.21,586.12 H440.21 V586.34 C439.66,586.3,438.89,586.27,438.22,585.95 C437.41,585.59,437.13,585.02,437.13,584.54 C437.13,583.66,438.19,583.38,438.86,583.38 C439.58,583.38,440.08,583.82,440.29,584.34 Z " stroke-width="0" fill="black" />
<path d="M443.29,584.34 L443.29,584.29 L443.29,584.25 L443.29,584.21 L443.28,584.18 L443.28,584.14 L443.27,584.11 L443.27,584.08 L443.26,584.06 L443.25,584.03 L443.24,584.01 L443.23,583.99 L443.21,583.97 L443.19,583.95 L443.18,583.94 L443.16,583.92 L443.13,583.91 L443.11,583.9 L443.08,583.89 L443.06,583.88 L443.02,583.88 L442.99,583.87 L442.95,583.87 L442.92,583.86 L442.87,583.86 L442.85,583.86 L442.83,583.86 L442.81,583.86 L442.78,583.86 L442.76,583.85 L442.73,583.85 L442.7,583.85 L442.68,583.85 L442.65,583.85 L442.62,583.85 L442.59,583.85 L442.56,583.85 L442.53,583.85 L442.5,583.85 L442.46,583.85 L442.43,583.85 V583.51 C442.79,583.52,443.3,583.54,443.62,583.54 C443.95,583.54,444.38,583.52,444.82,583.51 V583.85 C444.09,583.85,443.96,583.85,443.96,584.34 V585.45 L444.66,586.04 C445.49,584.9,445.95,584.29,445.95,584.09 C445.95,583.88,445.77,583.85,445.55,583.85 V583.51 C445.87,583.52,446.51,583.54,446.73,583.54 C447.05,583.54,447.37,583.52,447.68,583.51 V583.85 C447.27,583.85,447.04,583.85,446.62,584.41 L445.24,586.37 C445.24,586.38,445.18,586.45,445.18,586.48 C445.18,586.52,445.95,587.18,446.05,587.26 C446.74,587.82,447.2,587.84,447.43,587.85 V588.18 C447.12,588.15,446.98,588.15,446.66,588.15 C446.27,588.15,445.6,588.18,445.45,588.18 V587.85 C445.66,587.84,445.77,587.71,445.77,587.57 C445.77,587.37,445.62,587.23,445.52,587.15 L443.99,585.84 V591.04 L442.43,590.91 V590.59 C443.2,590.59,443.29,590.51,443.29,589.98 Z " stroke-width="0" fill="black" />
<polygon points="450.66,580.79 450.66,581.23 449.61,581.23 449.61,591.21 450.66,591.21 450.66,591.65 449.17,591.65 449.17,580.79 " stroke-width="0" fill="black" />
<path d="M454.1,585.3 V584.35 C454.1,583.96,454.08,583.85,453.27,583.85 H453.05 V583.51 C453.49,583.54,454.05,583.54,454.52,583.54 C454.97,583.54,455.55,583.54,455.99,583.51 V583.85 H455.75 C454.96,583.85,454.94,583.96,454.94,584.35 V585.3 H456.02 V585.63 H454.94 V590.57 C454.94,590.79,454.94,590.85,454.77,590.85 C454.66,590.85,454.63,590.85,454.55,590.73 L451.21,585.63 H451.52 L454.16,589.68 V585.63 H451.52 H451.21 V585.3 Z " stroke-width="0" fill="black" />
<polygon points="458.09,591.65 456.6,591.65 456.6,591.21 457.66,591.21 457.66,581.23 456.6,581.23 456.6,580.79 458.09,580.79 " stroke-width="0" fill="black" />
<path d="M102.77,574.3 H104.32 V574.63 H102.77 V576.63 H102.5 C102.49,575.74,102.16,574.59,101.1,574.54 V574.3 H102.02 V571.3 C102.02,569.98,103.04,569.84,103.43,569.84 C104.19,569.84,104.5,570.62,104.5,571.3 V571.93 H104.22 V571.32 C104.22,570.52,103.89,570.12,103.5,570.12 C102.77,570.12,102.77,571.1,102.77,571.29 Z " stroke-width="0" fill="black" />
<path d="M106.94,573.57 V574.76 L105.43,574.63 V574.3 C106.19,574.3,106.29,574.23,106.29,573.7 V570.79 C106.29,570.3,106.16,570.3,105.43,570.3 V569.96 C105.87,569.98,106.37,569.99,106.68,569.99 C107.1,569.99,107.62,569.99,108.06,569.96 V570.3 H107.82 C107.02,570.3,106.99,570.41,106.99,570.8 V572.48 C106.99,573.55,107.46,574.52,108.27,574.52 C108.35,574.52,108.38,574.52,108.4,574.51 C108.37,574.49,108.15,574.37,108.15,574.09 C108.15,573.77,108.38,573.62,108.62,573.62 C108.81,573.62,109.09,573.74,109.09,574.1 C109.09,574.45,108.74,574.76,108.27,574.76 C107.49,574.76,107.1,574.02,106.94,573.57 Z " stroke-width="0" fill="black" />
<path d="M113.01,570.79 L113.02,570.75 L113.02,570.71 L113.03,570.67 L113.04,570.63 L113.05,570.58 L113.06,570.54 L113.08,570.5 L113.09,570.47 L113.11,570.43 L113.13,570.39 L113.15,570.35 L113.17,570.32 L113.19,570.28 L113.21,570.25 L113.24,570.21 L113.26,570.18 L113.29,570.15 L113.32,570.12 L113.35,570.09 L113.38,570.06 L113.41,570.04 L113.45,570.02 L113.48,570 L113.52,569.98 L113.56,569.96 L113.6,569.94 L113.64,569.93 L113.68,569.92 L113.72,569.91 L113.76,569.9 L113.81,569.9 L113.86,569.9 C114.09,569.9,114.75,570.05,114.75,570.93 V571.54 H114.48 V570.93 C114.48,570.3,114.21,570.23,114.09,570.23 C113.73,570.23,113.68,570.73,113.68,570.77 V572.95 C113.68,573.4,113.68,573.82,113.29,574.23 C112.87,574.65,112.32,574.82,111.81,574.82 C110.92,574.82,110.17,574.3,110.17,573.6 C110.17,573.27,110.39,573.09,110.67,573.09 C110.98,573.09,111.17,573.3,111.17,573.59 C111.17,573.71,111.12,574.07,110.62,574.09 C110.92,574.46,111.45,574.59,111.79,574.59 C112.32,574.59,112.93,574.16,112.93,573.2 V572.79 V572.57 V571.48 C112.93,570.45,112.15,570.09,111.67,570.09 C111.14,570.09,110.7,570.46,110.7,571.01 C110.7,571.6,111.15,572.49,112.93,572.57 H112.93 V572.79 C112.39,572.76,111.62,572.73,110.95,572.4 C110.14,572.04,109.86,571.48,109.86,570.99 C109.86,570.12,110.92,569.84,111.59,569.84 C112.31,569.84,112.81,570.27,113.01,570.79 Z " stroke-width="0" fill="black" />
<path d="M116.78,574.76 L115.27,574.63 V574.3 C115.97,574.3,116.06,574.24,116.06,573.71 V570.79 C116.06,570.3,115.94,570.3,115.22,570.3 V569.96 C115.56,569.98,116.16,569.99,116.41,569.99 C116.8,569.99,117.17,569.98,117.55,569.96 V570.3 C116.83,570.3,116.78,570.35,116.78,570.77 Z " stroke-width="0" fill="black" />
<path d="M116.83,576.65 L116.83,576.68 L116.82,576.71 L116.82,576.74 L116.82,576.77 L116.81,576.8 L116.8,576.83 L116.79,576.86 L116.78,576.88 L116.77,576.91 L116.75,576.93 L116.74,576.96 L116.72,576.98 L116.71,577 L116.69,577.03 L116.67,577.05 L116.65,577.07 L116.63,577.09 L116.61,577.1 L116.59,577.12 L116.56,577.13 L116.54,577.15 L116.52,577.16 L116.49,577.17 L116.47,577.18 L116.44,577.19 L116.41,577.2 L116.39,577.21 L116.36,577.22 L116.33,577.22 L116.31,577.22 L116.28,577.23 L116.25,577.23 C115.91,577.23,115.67,576.93,115.67,576.65 C115.67,576.35,115.91,576.07,116.25,576.07 C116.55,576.07,116.83,576.3,116.83,576.65 Z " stroke-width="0" fill="black" />
<path d="M119.81,577.49 L118.25,577.37 V577.04 C119.01,577.04,119.09,576.96,119.09,576.43 V570.79 C119.09,570.3,118.96,570.3,118.25,570.3 V569.96 C118.61,569.98,119.18,569.99,119.45,569.99 C119.71,569.99,120.25,569.98,120.65,569.96 V570.3 C119.93,570.3,119.81,570.3,119.81,570.79 Z " stroke-width="0" fill="black" />
<path d="M122.84,574.76 L121.32,574.63 V574.3 C122.02,574.3,122.12,574.24,122.12,573.71 V570.79 C122.12,570.3,121.99,570.3,121.27,570.3 V569.96 C121.62,569.98,122.21,569.99,122.46,569.99 C122.85,569.99,123.23,569.98,123.6,569.96 V570.3 C122.88,570.3,122.84,570.35,122.84,570.77 Z " stroke-width="0" fill="black" />
<path d="M122.88,576.65 L122.88,576.68 L122.88,576.71 L122.88,576.74 L122.87,576.77 L122.86,576.8 L122.86,576.83 L122.85,576.86 L122.83,576.88 L122.82,576.91 L122.81,576.93 L122.79,576.96 L122.78,576.98 L122.76,577 L122.74,577.03 L122.73,577.05 L122.71,577.07 L122.68,577.09 L122.66,577.1 L122.64,577.12 L122.62,577.13 L122.59,577.15 L122.57,577.16 L122.55,577.17 L122.52,577.18 L122.49,577.19 L122.47,577.2 L122.44,577.21 L122.42,577.22 L122.39,577.22 L122.36,577.22 L122.33,577.23 L122.31,577.23 C121.96,577.23,121.73,576.93,121.73,576.65 C121.73,576.35,121.96,576.07,122.31,576.07 C122.6,576.07,122.88,576.3,122.88,576.65 Z " stroke-width="0" fill="black" />
<path d="M125.13,573.7 V570.79 C125.13,570.3,125.02,570.3,124.29,570.3 V569.96 C124.68,569.98,125.22,569.99,125.52,569.99 C125.8,569.99,126.36,569.98,126.72,569.96 V570.3 C126,570.3,125.88,570.3,125.88,570.79 V572.79 C125.88,573.91,126.66,574.52,127.35,574.52 C128.04,574.52,128.15,573.93,128.15,573.32 V570.79 C128.15,570.3,128.04,570.3,127.3,570.3 V569.96 C127.69,569.98,128.24,569.99,128.54,569.99 C128.82,569.99,129.38,569.98,129.75,569.96 V570.3 C129.18,570.3,128.91,570.3,128.9,570.62 V572.7 C128.9,573.63,128.9,573.96,128.57,574.35 C128.41,574.54,128.05,574.76,127.43,574.76 C126.63,574.76,126.13,574.29,125.82,573.62 V574.76 L124.29,574.63 V574.3 C125.05,574.3,125.13,574.23,125.13,573.7 Z " stroke-width="0" fill="black" />
<path d="M131.15,571.4 L131.15,571.4 L131.15,571.41 L131.15,571.42 L131.15,571.42 L131.15,571.43 L131.15,571.44 L131.15,571.46 L131.15,571.47 L131.15,571.48 L131.15,571.49 L131.15,571.51 L131.16,571.52 L131.16,571.54 L131.16,571.56 L131.17,571.57 L131.17,571.59 L131.17,571.61 L131.18,571.63 L131.18,571.65 L131.19,571.67 L131.2,571.69 L131.2,571.71 L131.21,571.73 L131.22,571.75 L131.23,571.77 L131.24,571.79 L131.25,571.81 L131.26,571.83 L131.28,571.85 L131.29,571.87 L131.3,571.89 L131.32,571.91 C131.74,571.62,132.2,571.57,132.4,571.57 V571.82 C131.46,571.82,131.46,572.91,131.46,573.16 C131.46,573.46,131.46,573.8,131.63,574.07 C131.71,574.21,131.96,574.51,132.4,574.51 C133.35,574.51,133.35,573.43,133.35,573.18 C133.35,572.88,133.34,572.54,133.16,572.26 C133.09,572.13,132.84,571.82,132.4,571.82 H132.4 V571.57 C133.41,571.57,134.16,572.32,134.16,573.16 C134.16,573.57,133.99,573.96,133.71,574.21 C134.1,574.59,134.49,574.63,134.7,574.63 C134.71,574.63,134.77,574.63,134.8,574.63 C134.68,574.59,134.63,574.46,134.63,574.34 C134.63,574.15,134.77,574.02,134.95,574.02 C135.05,574.02,135.26,574.1,135.26,574.35 C135.26,574.52,135.12,574.88,134.7,574.88 C134.48,574.88,134.01,574.8,133.55,574.37 C133.1,574.73,132.63,574.76,132.4,574.76 C131.4,574.76,130.65,574.01,130.65,573.18 C130.65,572.7,130.88,572.29,131.15,572.05 C131.01,571.9,130.82,571.54,130.82,571.15 C130.82,570.82,130.96,570.4,131.29,570.2 C130.65,570.01,130.29,569.54,130.29,569.1 C130.29,568.32,131.37,567.73,132.7,567.73 L132.71,567.98 C131.6,567.98,130.87,568.52,130.87,569.1 C130.87,569.6,131.27,570.01,131.74,570.04 H132.38 C133.32,570.04,134.54,570.04,134.54,569.1 C134.54,568.52,133.77,567.98,132.71,567.98 H132.71 L132.7,567.73 C133.98,567.73,135.1,568.27,135.1,569.13 C135.1,569.51,134.95,570.05,134.4,570.37 C133.82,570.66,133.2,570.66,132.52,570.66 C132.26,570.66,131.79,570.66,131.71,570.68 C131.37,570.73,131.15,571.05,131.15,571.4 Z " stroke-width="0" fill="black" />
</g>
</svg>
