<?xml version="1.0" encoding="ISO-8859-1" standalone="no"?>
<!DOCTYPE svg PUBLIC "-//W3C//DTD SVG 1.1//EN" "http://www.w3.org/Graphics/SVG/1.1/DTD/svg11.dtd">
<svg version="1.1" baseProfile="full" id="body" width="141px" height="109px" viewBox="0 0 1 1" preserveAspectRatio="none" xmlns="http://www.w3.org/2000/svg" xmlns:xlink="http://www.w3.org/1999/xlink" xmlns:ev="http://www.w3.org/2001/xml-events">
<title>SVG drawing</title>
<desc>This was produced by version 4.4 of GNU libplot, a free library for exporting 2-D vector graphics.</desc>
<rect id="background" x="0" y="0" width="1" height="1" stroke="none" fill="white"/>
<g id="content" transform="translate(-0.875,7.85) scale(5.22,-6.81) scale(0.0017361) " xml:space="preserve" stroke="black" stroke-linecap="butt" stroke-linejoin="miter" stroke-miterlimit="10.433" stroke-dasharray="none" stroke-dashoffset="0" stroke-opacity="1" fill="none" fill-rule="evenodd" fill-opacity="1" font-style="normal" font-variant="normal" font-weight="normal" font-stretch="normal" font-size-adjust="none" letter-spacing="normal" word-spacing="normal" text-anchor="start">
<path d="M104.08,658.19 L104.08,658.2 L104.08,658.22 L104.08,658.23 L104.08,658.24 L104.08,658.25 L104.08,658.26 L104.08,658.27 L104.08,658.28 L104.08,658.29 L104.08,658.3 L104.08,658.31 L104.08,658.32 L104.08,658.32 L104.08,658.33 L104.08,658.34 L104.08,658.35 L104.08,658.35 L104.08,658.36 L104.08,658.37 L104.07,658.37 L104.07,658.38 L104.07,658.39 L104.07,658.4 L104.07,658.41 L104.06,658.42 L104.06,658.42 L104.05,658.43 L104.04,658.44 L104.04,658.44 L104.03,658.45 L104.02,658.45 L104.01,658.46 L104.01,658.46 L104,658.46 L104,658.46 L103.99,658.46 L103.98,658.47 L103.98,658.47 L103.97,658.47 L103.96,658.47 L103.96,658.47 L103.95,658.47 L103.94,658.47 L103.93,658.47 L103.92,658.47 L103.91,658.47 L103.91,658.47 L103.9,658.47 L103.89,658.47 L103.88,658.47 L103.87,658.47 L103.85,658.47 L103.84,658.47 L103.83,658.47 C103.16,657.78,102.21,657.78,101.86,657.78 V657.46 C102.08,657.46,102.72,657.46,103.29,657.74 V652.11 C103.29,651.72,103.25,651.6,102.27,651.6 H101.93 V651.25 C102.3,651.28,103.25,651.28,103.68,651.28 C104.11,651.28,105.07,651.28,105.44,651.25 V651.6 H105.1 C104.11,651.6,104.08,651.71,104.08,652.11 Z " stroke-width="0" fill="black" />
<path d="M108.2,655.33 V656.05 L106.64,655.93 V655.6 C107.42,655.6,107.5,655.53,107.5,655.05 V649.97 C107.5,649.49,107.38,649.49,106.64,649.49 V649.15 C107.02,649.16,107.58,649.18,107.86,649.18 C108.16,649.18,108.7,649.16,109.09,649.15 V649.49 C108.36,649.49,108.25,649.49,108.25,649.97 V651.8 V651.9 L108.39,652.03 C108.25,652.27,108.25,652.27,108.25,652.49 H108.25 V654.91 C108.56,655.46,109.09,655.78,109.64,655.78 C110.44,655.78,111.09,654.82,111.09,653.6 C111.09,652.28,110.34,651.38,109.53,651.38 C109.09,651.38,108.69,651.6,108.39,652.03 L108.25,651.9 C108.3,651.72,108.75,651.13,109.58,651.13 C110.88,651.13,112,652.19,112,653.6 C112,654.97,110.94,656.05,109.73,656.05 C108.88,656.05,108.42,655.57,108.2,655.33 Z " stroke-width="0" fill="black" />
<path d="M114.28,655.6 H115.82 V655.93 H114.28 V657.93 H114.01 C114,657.03,113.67,655.88,112.61,655.83 V655.6 H113.53 V652.6 C113.53,651.27,114.54,651.13,114.93,651.13 C115.7,651.13,116.01,651.91,116.01,652.6 V653.22 H115.73 V652.61 C115.73,651.82,115.4,651.41,115.01,651.41 C114.28,651.41,114.28,652.4,114.28,652.58 Z " stroke-width="0" fill="black" />
<polyline points="133,654 134,654 134,654.4 133,654.4 " stroke-width="0" fill="black" fill-rule="nonzero" />
<polyline points="133,648 133.4,648 133.4,653.98 133,653.98 " stroke-width="0" fill="black" fill-rule="nonzero" />
<polyline points="133,648 133.4,648 133.4,653.98 133,653.98 " stroke-width="0" fill="black" fill-rule="nonzero" />
<polyline points="133,648 134,648 134,648.4 133,648.4 " stroke-width="0" fill="black" fill-rule="nonzero" />
<path d="M104.08,644.65 L104.08,644.66 L104.08,644.67 L104.08,644.68 L104.08,644.7 L104.08,644.71 L104.08,644.72 L104.08,644.73 L104.08,644.74 L104.08,644.75 L104.08,644.76 L104.08,644.76 L104.08,644.77 L104.08,644.78 L104.08,644.79 L104.08,644.8 L104.08,644.8 L104.08,644.81 L104.08,644.82 L104.08,644.82 L104.07,644.83 L104.07,644.84 L104.07,644.84 L104.07,644.85 L104.07,644.86 L104.06,644.87 L104.06,644.88 L104.05,644.89 L104.04,644.9 L104.04,644.9 L104.03,644.91 L104.02,644.91 L104.01,644.91 L104.01,644.92 L104,644.92 L104,644.92 L103.99,644.92 L103.98,644.92 L103.98,644.92 L103.97,644.92 L103.96,644.93 L103.96,644.93 L103.95,644.93 L103.94,644.93 L103.93,644.93 L103.92,644.93 L103.91,644.93 L103.91,644.93 L103.9,644.93 L103.89,644.93 L103.88,644.93 L103.87,644.93 L103.85,644.93 L103.84,644.93 L103.83,644.93 C103.16,644.24,102.21,644.24,101.86,644.24 V643.91 C102.08,643.91,102.72,643.91,103.29,644.2 V638.57 C103.29,638.18,103.25,638.05,102.27,638.05 H101.93 V637.71 C102.3,637.74,103.25,637.74,103.68,637.74 C104.11,637.74,105.07,637.74,105.44,637.71 V638.05 H105.1 C104.11,638.05,104.08,638.16,104.08,638.57 Z " stroke-width="0" fill="black" />
<path d="M107.53,641.45 V638.54 C107.53,638.05,107.42,638.05,106.69,638.05 V637.71 C107.08,637.73,107.62,637.74,107.92,637.74 C108.2,637.74,108.77,637.73,109.12,637.71 V638.05 C108.41,638.05,108.28,638.05,108.28,638.54 V640.54 C108.28,641.66,109.06,642.27,109.75,642.27 C110.44,642.27,110.55,641.68,110.55,641.07 V638.54 C110.55,638.05,110.44,638.05,109.7,638.05 V637.71 C110.09,637.73,110.64,637.74,110.94,637.74 C111.22,637.74,111.78,637.73,112.16,637.71 V638.05 C111.42,638.05,111.3,638.05,111.3,638.54 V640.54 C111.3,641.66,112.08,642.27,112.77,642.27 C113.45,642.27,113.56,641.68,113.56,641.07 V638.54 C113.56,638.05,113.45,638.05,112.72,638.05 V637.71 C113.11,637.73,113.66,637.74,113.95,637.74 C114.23,637.74,114.8,637.73,115.17,637.71 V638.05 C114.59,638.05,114.33,638.05,114.31,638.37 V640.45 C114.31,641.38,114.31,641.71,113.98,642.1 C113.83,642.29,113.47,642.51,112.84,642.51 C111.94,642.51,111.45,641.85,111.27,641.45 C111.12,642.38,110.31,642.51,109.83,642.51 C109.03,642.51,108.53,642.04,108.22,641.37 V642.51 L106.69,642.38 V642.05 C107.45,642.05,107.53,641.98,107.53,641.45 Z " stroke-width="0" fill="black" />
<path d="M116.62,641.45 V638.54 C116.62,638.05,116.51,638.05,115.78,638.05 V637.71 C116.17,637.73,116.71,637.74,117.01,637.74 C117.29,637.74,117.86,637.73,118.21,637.71 V638.05 C117.5,638.05,117.37,638.05,117.37,638.54 V640.54 C117.37,641.66,118.15,642.27,118.84,642.27 C119.53,642.27,119.64,641.68,119.64,641.07 V638.54 C119.64,638.05,119.53,638.05,118.79,638.05 V637.71 C119.18,637.73,119.73,637.74,120.03,637.74 C120.31,637.74,120.87,637.73,121.25,637.71 V638.05 C120.51,638.05,120.39,638.05,120.39,638.54 V640.54 C120.39,641.66,121.17,642.27,121.86,642.27 C122.54,642.27,122.65,641.68,122.65,641.07 V638.54 C122.65,638.05,122.54,638.05,121.81,638.05 V637.71 C122.2,637.73,122.75,637.74,123.04,637.74 C123.32,637.74,123.89,637.73,124.26,637.71 V638.05 C123.68,638.05,123.42,638.05,123.4,638.37 V640.45 C123.4,641.38,123.4,641.71,123.07,642.1 C122.92,642.29,122.56,642.51,121.93,642.51 C121.03,642.51,120.54,641.85,120.36,641.45 C120.21,642.38,119.4,642.51,118.92,642.51 C118.12,642.51,117.62,642.04,117.31,641.37 V642.51 L115.78,642.38 V642.05 C116.54,642.05,116.62,641.98,116.62,641.45 Z " stroke-width="0" fill="black" />
<polyline points="133,641 135.84,641 135.84,641.4 133,641.4 " stroke-width="0" fill="black" fill-rule="nonzero" />
<polyline points="133,635 133.4,635 133.4,640.98 133,640.98 " stroke-width="0" fill="black" fill-rule="nonzero" />
<polyline points="135,635 135.4,635 135.4,640.98 135,640.98 " stroke-width="0" fill="black" fill-rule="nonzero" />
<polyline points="133,634 135.84,634 135.84,634.4 133,634.4 " stroke-width="0" fill="black" fill-rule="nonzero" />
<path d="M104.08,631.1 L104.08,631.11 L104.08,631.12 L104.08,631.13 L104.08,631.14 L104.08,631.16 L104.08,631.17 L104.08,631.18 L104.08,631.19 L104.08,631.2 L104.08,631.2 L104.08,631.21 L104.08,631.22 L104.08,631.23 L104.08,631.24 L104.08,631.25 L104.08,631.25 L104.08,631.26 L104.08,631.27 L104.08,631.27 L104.07,631.28 L104.07,631.29 L104.07,631.29 L104.07,631.3 L104.07,631.31 L104.06,631.32 L104.06,631.33 L104.05,631.34 L104.04,631.34 L104.04,631.35 L104.03,631.36 L104.02,631.36 L104.01,631.36 L104.01,631.37 L104,631.37 L104,631.37 L103.99,631.37 L103.98,631.37 L103.98,631.37 L103.97,631.37 L103.96,631.37 L103.96,631.38 L103.95,631.38 L103.94,631.38 L103.93,631.38 L103.92,631.38 L103.91,631.38 L103.91,631.38 L103.9,631.38 L103.89,631.38 L103.88,631.38 L103.87,631.38 L103.85,631.38 L103.84,631.38 L103.83,631.38 C103.16,630.69,102.21,630.69,101.86,630.69 V630.36 C102.08,630.36,102.72,630.36,103.29,630.65 V625.02 C103.29,624.63,103.25,624.5,102.27,624.5 H101.93 V624.16 C102.3,624.19,103.25,624.19,103.68,624.19 C104.11,624.19,105.07,624.19,105.44,624.16 V624.5 H105.1 C104.11,624.5,104.08,624.61,104.08,625.02 Z " stroke-width="0" fill="black" />
<path d="M107.61,626.52 L107.61,626.6 L107.61,626.68 L107.61,626.76 L107.62,626.84 L107.62,626.91 L107.63,626.99 L107.64,627.06 L107.65,627.13 L107.66,627.2 L107.67,627.26 L107.68,627.33 L107.7,627.39 L107.72,627.51 L107.76,627.62 L107.79,627.73 L107.83,627.83 L107.88,627.92 L107.92,628.01 L107.97,628.09 L108.02,628.17 L108.07,628.24 L108.13,628.3 L108.18,628.37 L108.24,628.42 L108.3,628.47 L108.36,628.52 L108.42,628.56 L108.48,628.59 L108.54,628.63 L108.6,628.66 L108.67,628.68 L108.73,628.7 L108.79,628.72 L108.85,628.73 L108.91,628.74 L108.97,628.75 L109.02,628.75 L109.08,628.75 C109.17,628.75,109.86,628.74,110.23,628.35 C109.8,628.32,109.73,627.99,109.73,627.85 C109.73,627.57,109.92,627.35,110.23,627.35 C110.52,627.35,110.73,627.53,110.73,627.86 C110.73,628.6,109.91,629.02,109.06,629.02 C107.7,629.02,106.72,627.85,106.72,626.5 C106.72,625.11,107.78,624.03,109.05,624.03 C110.5,624.03,110.84,625.35,110.84,625.46 C110.84,625.57,110.73,625.57,110.7,625.57 C110.61,625.57,110.59,625.52,110.56,625.46 C110.25,624.44,109.55,624.32,109.14,624.32 C108.56,624.32,107.61,624.78,107.61,626.52 Z " stroke-width="0" fill="black" />
<path d="M112.38,627.9 V624.99 C112.38,624.5,112.27,624.5,111.54,624.5 V624.16 C111.93,624.18,112.48,624.19,112.77,624.19 C113.06,624.19,113.62,624.18,113.98,624.16 V624.5 C113.26,624.5,113.13,624.5,113.13,624.99 V626.99 C113.13,628.11,113.91,628.72,114.6,628.72 C115.29,628.72,115.4,628.13,115.4,627.52 V624.99 C115.4,624.5,115.29,624.5,114.56,624.5 V624.16 C114.94,624.18,115.49,624.19,115.79,624.19 C116.07,624.19,116.63,624.18,117.01,624.16 V624.5 C116.27,624.5,116.15,624.5,116.15,624.99 V626.99 C116.15,628.11,116.93,628.72,117.62,628.72 C118.31,628.72,118.41,628.13,118.41,627.52 V624.99 C118.41,624.5,118.31,624.5,117.57,624.5 V624.16 C117.96,624.18,118.51,624.19,118.81,624.19 C119.09,624.19,119.65,624.18,120.02,624.16 V624.5 C119.44,624.5,119.18,624.5,119.16,624.82 V626.9 C119.16,627.83,119.16,628.16,118.84,628.55 C118.68,628.74,118.32,628.96,117.69,628.96 C116.79,628.96,116.31,628.3,116.12,627.9 C115.98,628.83,115.16,628.96,114.68,628.96 C113.88,628.96,113.38,628.49,113.07,627.82 V628.96 L111.54,628.83 V628.5 C112.31,628.5,112.38,628.43,112.38,627.9 Z " stroke-width="0" fill="black" />
<polyline points="133,627 161.35,627 161.35,627.4 133,627.4 " stroke-width="0" fill="black" fill-rule="nonzero" />
<polyline points="133,621 133.4,621 133.4,626.98 133,626.98 " stroke-width="0" fill="black" fill-rule="nonzero" />
<polyline points="161,621 161.4,621 161.4,626.98 161,626.98 " stroke-width="0" fill="black" fill-rule="nonzero" />
<polyline points="133,621 161.35,621 161.35,621.4 133,621.4 " stroke-width="0" fill="black" fill-rule="nonzero" />
<path d="M104.08,617.55 L104.08,617.56 L104.08,617.57 L104.08,617.58 L104.08,617.59 L104.08,617.6 L104.08,617.62 L104.08,617.63 L104.08,617.64 L104.08,617.64 L104.08,617.65 L104.08,617.66 L104.08,617.67 L104.08,617.68 L104.08,617.69 L104.08,617.7 L104.08,617.7 L104.08,617.71 L104.08,617.72 L104.08,617.72 L104.07,617.73 L104.07,617.74 L104.07,617.74 L104.07,617.75 L104.07,617.76 L104.06,617.77 L104.06,617.78 L104.05,617.79 L104.04,617.79 L104.04,617.8 L104.03,617.8 L104.02,617.81 L104.01,617.81 L104.01,617.81 L104,617.82 L104,617.82 L103.99,617.82 L103.98,617.82 L103.98,617.82 L103.97,617.82 L103.96,617.82 L103.96,617.82 L103.95,617.82 L103.94,617.83 L103.93,617.83 L103.92,617.83 L103.91,617.83 L103.91,617.83 L103.9,617.83 L103.89,617.83 L103.88,617.83 L103.87,617.83 L103.85,617.83 L103.84,617.83 L103.83,617.83 C103.16,617.14,102.21,617.14,101.86,617.14 V616.81 C102.08,616.81,102.72,616.81,103.29,617.09 V611.47 C103.29,611.08,103.25,610.95,102.27,610.95 H101.93 V610.61 C102.3,610.64,103.25,610.64,103.68,610.64 C104.11,610.64,105.07,610.64,105.44,610.61 V610.95 H105.1 C104.11,610.95,104.08,611.06,104.08,611.47 Z " stroke-width="0" fill="black" />
<path d="M108.27,615.41 L106.75,615.28 V614.95 C107.45,614.95,107.55,614.89,107.55,614.36 V611.44 C107.55,610.95,107.42,610.95,106.7,610.95 V610.61 C107.05,610.62,107.64,610.64,107.89,610.64 C108.28,610.64,108.66,610.62,109.03,610.61 V610.95 C108.31,610.95,108.27,611,108.27,611.42 Z " stroke-width="0" fill="black" />
<path d="M108.31,617.3 L108.31,617.33 L108.31,617.36 L108.31,617.39 L108.3,617.42 L108.29,617.45 L108.29,617.48 L108.28,617.51 L108.26,617.53 L108.25,617.56 L108.24,617.58 L108.22,617.61 L108.21,617.63 L108.19,617.65 L108.17,617.67 L108.15,617.7 L108.13,617.71 L108.11,617.73 L108.09,617.75 L108.07,617.77 L108.05,617.78 L108.02,617.8 L108,617.81 L107.98,617.82 L107.95,617.83 L107.92,617.84 L107.9,617.85 L107.87,617.86 L107.84,617.86 L107.82,617.87 L107.79,617.87 L107.76,617.87 L107.73,617.88 C107.39,617.88,107.16,617.58,107.16,617.3 C107.16,617,107.39,616.72,107.73,616.72 C108.03,616.72,108.31,616.95,108.31,617.3 Z " stroke-width="0" fill="black" />
<path d="M110.56,614.34 V611.44 C110.56,610.95,110.45,610.95,109.71,610.95 V610.61 C110.11,610.62,110.65,610.64,110.95,610.64 C111.23,610.64,111.79,610.62,112.15,610.61 V610.95 C111.43,610.95,111.31,610.95,111.31,611.44 V613.44 C111.31,614.56,112.09,615.17,112.78,615.17 C113.46,615.17,113.57,614.58,113.57,613.97 V611.44 C113.57,610.95,113.46,610.95,112.73,610.95 V610.61 C113.12,610.62,113.67,610.64,113.96,610.64 C114.25,610.64,114.81,610.62,115.18,610.61 V610.95 C114.61,610.95,114.34,610.95,114.32,611.27 V613.34 C114.32,614.28,114.32,614.61,114,615 C113.84,615.19,113.48,615.41,112.86,615.41 C112.06,615.41,111.56,614.94,111.25,614.27 V615.41 L109.71,615.28 V614.95 C110.48,614.95,110.56,614.88,110.56,614.34 Z " stroke-width="0" fill="black" />
<polyline points="133,614 205,614 205,614.4 133,614.4 " stroke-width="0" fill="black" fill-rule="nonzero" />
<polyline points="133,608 133.4,608 133.4,613.98 133,613.98 " stroke-width="0" fill="black" fill-rule="nonzero" />
<polyline points="204,608 204.4,608 204.4,613.98 204,613.98 " stroke-width="0" fill="black" fill-rule="nonzero" />
<polyline points="133,607 205,607 205,607.4 133,607.4 " stroke-width="0" fill="black" fill-rule="nonzero" />
<path d="M104.08,604 L104.08,604.01 L104.08,604.02 L104.08,604.03 L104.08,604.04 L104.08,604.05 L104.08,604.06 L104.08,604.07 L104.08,604.08 L104.08,604.09 L104.08,604.1 L104.08,604.11 L104.08,604.12 L104.08,604.13 L104.08,604.14 L104.08,604.14 L104.08,604.15 L104.08,604.16 L104.08,604.17 L104.08,604.17 L104.07,604.18 L104.07,604.19 L104.07,604.19 L104.07,604.2 L104.07,604.21 L104.06,604.22 L104.06,604.23 L104.05,604.24 L104.04,604.24 L104.04,604.25 L104.03,604.25 L104.02,604.26 L104.01,604.26 L104.01,604.26 L104,604.27 L104,604.27 L103.99,604.27 L103.98,604.27 L103.98,604.27 L103.97,604.27 L103.96,604.27 L103.96,604.27 L103.95,604.27 L103.94,604.27 L103.93,604.27 L103.92,604.28 L103.91,604.28 L103.91,604.28 L103.9,604.28 L103.89,604.28 L103.88,604.28 L103.87,604.28 L103.85,604.28 L103.84,604.28 L103.83,604.28 C103.16,603.59,102.21,603.59,101.86,603.59 V603.26 C102.08,603.26,102.72,603.26,103.29,603.54 V597.92 C103.29,597.53,103.25,597.4,102.27,597.4 H101.93 V597.06 C102.3,597.09,103.25,597.09,103.68,597.09 C104.11,597.09,105.07,597.09,105.44,597.06 V597.4 H105.1 C104.11,597.4,104.08,597.51,104.08,597.92 Z " stroke-width="0" fill="black" />
<path d="M107.55,599.56 H110.58 C110.81,599.56,110.84,599.56,110.84,599.79 C110.84,600.87,110.27,601.92,108.91,601.92 V601.68 C110.02,601.68,110.12,600.22,110.12,599.79 H107.56 C107.62,601.4,108.53,601.68,108.91,601.68 V601.92 C107.64,601.92,106.64,600.81,106.64,599.45 C106.64,598,107.78,596.93,109.03,596.93 C110.36,596.93,110.84,598.14,110.84,598.35 C110.84,598.47,110.77,598.48,110.7,598.48 C110.61,598.48,110.59,598.42,110.56,598.32 C110.19,597.22,109.2,597.22,109.09,597.22 C108.56,597.22,108.12,597.54,107.88,597.93 C107.55,598.47,107.55,599.17,107.55,599.56 Z " stroke-width="0" fill="black" />
<path d="M114.31,599.6 L114.37,599.69 L114.43,599.77 L114.5,599.85 L114.56,599.94 L114.7,600.11 L114.77,600.19 L114.83,600.28 L114.9,600.36 L114.97,600.44 L115.03,600.51 L115.09,600.59 L115.12,600.62 L115.15,600.66 L115.18,600.69 L115.2,600.72 L115.23,600.75 L115.26,600.78 L115.28,600.81 L115.31,600.84 C115.65,601.23,116.09,601.39,116.6,601.4 V601.73 C116.32,601.72,115.99,601.7,115.71,601.7 C115.38,601.7,114.81,601.73,114.66,601.73 V601.4 C114.9,601.37,114.98,601.23,114.98,601.06 C114.98,600.89,114.87,600.75,114.82,600.68 L114.15,599.84 L113.31,600.93 C113.19,601.04,113.19,601.06,113.19,601.12 C113.19,601.29,113.37,601.39,113.59,601.4 V601.73 C113.31,601.73,112.59,601.7,112.41,601.7 C112.18,601.7,111.68,601.72,111.38,601.73 V601.4 C112.13,601.4,112.15,601.39,112.66,600.73 L113.73,599.34 L112.71,598.04 C112.19,597.42,111.56,597.4,111.32,597.4 V597.06 C111.6,597.07,111.94,597.09,112.23,597.09 C112.54,597.09,112.99,597.07,113.26,597.06 V597.4 C113.02,597.43,112.94,597.57,112.94,597.73 C112.94,597.97,113.26,598.32,113.91,599.1 L114.74,598.03 C114.84,597.9,114.98,597.73,114.98,597.67 C114.98,597.57,114.87,597.4,114.59,597.4 V597.06 C114.9,597.07,115.51,597.09,115.76,597.09 C116.04,597.09,116.46,597.07,116.79,597.06 V597.4 C116.21,597.4,116.01,597.42,115.76,597.73 Z " stroke-width="0" fill="black" />
<polyline points="133,600 137.7,600 137.7,600.4 133,600.4 " stroke-width="0" fill="black" fill-rule="nonzero" />
<polyline points="133,594 133.4,594 133.4,599.98 133,599.98 " stroke-width="0" fill="black" fill-rule="nonzero" />
<polyline points="137,594 137.4,594 137.4,599.98 137,599.98 " stroke-width="0" fill="black" fill-rule="nonzero" />
<polyline points="133,594 137.7,594 137.7,594.4 133,594.4 " stroke-width="0" fill="black" fill-rule="nonzero" />
<path d="M104.08,590.45 L104.08,590.46 L104.08,590.47 L104.08,590.48 L104.08,590.49 L104.08,590.5 L104.08,590.51 L104.08,590.52 L104.08,590.53 L104.08,590.54 L104.08,590.55 L104.08,590.56 L104.08,590.57 L104.08,590.58 L104.08,590.59 L104.08,590.59 L104.08,590.6 L104.08,590.61 L104.08,590.62 L104.08,590.62 L104.07,590.63 L104.07,590.63 L104.07,590.64 L104.07,590.65 L104.07,590.66 L104.06,590.67 L104.06,590.68 L104.05,590.69 L104.04,590.69 L104.04,590.7 L104.03,590.7 L104.02,590.71 L104.01,590.71 L104.01,590.71 L104,590.72 L104,590.72 L103.99,590.72 L103.98,590.72 L103.98,590.72 L103.97,590.72 L103.96,590.72 L103.96,590.72 L103.95,590.72 L103.94,590.72 L103.93,590.72 L103.92,590.73 L103.91,590.73 L103.91,590.73 L103.9,590.73 L103.89,590.73 L103.88,590.73 L103.87,590.73 L103.85,590.73 L103.84,590.73 L103.83,590.73 C103.16,590.04,102.21,590.04,101.86,590.04 V589.71 C102.08,589.71,102.72,589.71,103.29,589.99 V584.37 C103.29,583.98,103.25,583.85,102.27,583.85 H101.93 V583.51 C102.3,583.54,103.25,583.54,103.68,583.54 C104.11,583.54,105.07,583.54,105.44,583.51 V583.85 H105.1 C104.11,583.85,104.08,583.96,104.08,584.37 Z " stroke-width="0" fill="black" />
<path d="M107.55,586.01 H110.58 C110.81,586.01,110.84,586.01,110.84,586.24 C110.84,587.32,110.27,588.37,108.91,588.37 V588.13 C110.02,588.13,110.12,586.66,110.12,586.24 H107.56 C107.62,587.85,108.53,588.13,108.91,588.13 V588.37 C107.64,588.37,106.64,587.26,106.64,585.9 C106.64,584.45,107.78,583.38,109.03,583.38 C110.36,583.38,110.84,584.59,110.84,584.8 C110.84,584.91,110.77,584.93,110.7,584.93 C110.61,584.93,110.59,584.87,110.56,584.77 C110.19,583.66,109.2,583.66,109.09,583.66 C108.56,583.66,108.12,583.99,107.88,584.38 C107.55,584.91,107.55,585.62,107.55,586.01 Z " stroke-width="0" fill="black" />
<path d="M112.38,587.24 V584.34 C112.38,583.85,112.27,583.85,111.54,583.85 V583.51 C111.93,583.52,112.48,583.54,112.77,583.54 C113.06,583.54,113.62,583.52,113.98,583.51 V583.85 C113.26,583.85,113.13,583.85,113.13,584.34 V586.34 C113.13,587.46,113.91,588.07,114.6,588.07 C115.29,588.07,115.4,587.48,115.4,586.87 V584.34 C115.4,583.85,115.29,583.85,114.56,583.85 V583.51 C114.94,583.52,115.49,583.54,115.79,583.54 C116.07,583.54,116.63,583.52,117.01,583.51 V583.85 C116.27,583.85,116.15,583.85,116.15,584.34 V586.34 C116.15,587.46,116.93,588.07,117.62,588.07 C118.31,588.07,118.41,587.48,118.41,586.87 V584.34 C118.41,583.85,118.31,583.85,117.57,583.85 V583.51 C117.96,583.52,118.51,583.54,118.81,583.54 C119.09,583.54,119.65,583.52,120.02,583.51 V583.85 C119.44,583.85,119.18,583.85,119.16,584.16 V586.24 C119.16,587.18,119.16,587.51,118.84,587.9 C118.68,588.09,118.32,588.3,117.69,588.3 C116.79,588.3,116.31,587.65,116.12,587.24 C115.98,588.18,115.16,588.3,114.68,588.3 C113.88,588.3,113.38,587.84,113.07,587.16 V588.3 L111.54,588.18 V587.85 C112.31,587.85,112.38,587.77,112.38,587.24 Z " stroke-width="0" fill="black" />
<polyline points="133,586 143.91,586 143.91,586.4 133,586.4 " stroke-width="0" fill="black" fill-rule="nonzero" />
<polyline points="133,581 133.4,581 133.4,586.98 133,586.98 " stroke-width="0" fill="black" fill-rule="nonzero" />
<polyline points="143,581 143.4,581 143.4,586.98 143,586.98 " stroke-width="0" fill="black" fill-rule="nonzero" />
<polyline points="133,580 143.91,580 143.91,580.4 133,580.4 " stroke-width="0" fill="black" fill-rule="nonzero" />
</g>
</svg>
